<svg width="475" height="698" viewbox ="139 120 475 698" xmlns="http://www.w3.org/2000/svg" shape-rendering="crispEdges"><rect width="20" height= "20"  x="139" y="440" fill="#d30687" /><rect width="20" height= "20"  x="139" y="480" fill="#d30687" /><rect width="20" height= "20"  x="139" y="520" fill="#9e0566" /><rect width="20" height= "20"  x="139" y="540" fill="#ff09b7" /><rect width="20" height= "20"  x="159" y="340" fill="#f60796" /><rect width="20" height= "20"  x="159" y="360" fill="#d1067d" /><rect width="20" height= "20"  x="159" y="380" fill="#d1067d" /><rect width="20" height= "20"  x="159" y="400" fill="#47023c" /><rect width="20" height= "20"  x="159" y="420" fill="#a90571" /><rect width="20" height= "20"  x="159" y="440" fill="#74034e" /><rect width="20" height= "20"  x="159" y="460" fill="#970458" /><rect width="20" height= "20"  x="159" y="480" fill="#74034e" /><rect width="20" height= "20"  x="159" y="500" fill="#f60796" /><rect width="20" height= "20"  x="159" y="520" fill="#74034e" /><rect width="20" height= "20"  x="159" y="540" fill="#9e0566" /><rect width="20" height= "20"  x="159" y="560" fill="#74034e" /><rect width="20" height= "20"  x="179" y="300" fill="#74034e" /><rect width="20" height= "20"  x="179" y="320" fill="#d30687" /><rect width="20" height= "20"  x="179" y="340" fill="#74034e" /><rect width="20" height= "20"  x="179" y="360" fill="#47023c" /><rect width="20" height= "20"  x="179" y="380" fill="#32012d" /><rect width="20" height= "20"  x="179" y="400" fill="#47023c" /><rect width="20" height= "20"  x="179" y="420" fill="#74034e" /><rect width="20" height= "20"  x="179" y="440" fill="#74034e" /><rect width="20" height= "20"  x="179" y="460" fill="#1a011e" /><rect width="20" height= "20"  x="179" y="480" fill="#ff0dff" /><rect width="20" height= "20"  x="179" y="500" fill="#47023c" /><rect width="20" height= "20"  x="179" y="520" fill="#fe08b5" /><rect width="20" height= "20"  x="179" y="540" fill="#47023c" /><rect width="20" height= "20"  x="179" y="560" fill="#6a0337" /><rect width="20" height= "20"  x="179" y="580" fill="#32012d" /><rect width="20" height= "20"  x="179" y="600" fill="#ff08a0" /><rect width="20" height= "20"  x="199" y="240" fill="#47023c" /><rect width="20" height= "20"  x="199" y="260" fill="#f60796" /><rect width="20" height= "20"  x="199" y="280" fill="#d30687" /><rect width="20" height= "20"  x="199" y="300" fill="#74034e" /><rect width="20" height= "20"  x="199" y="320" fill="#ff0bea" /><rect width="20" height= "20"  x="199" y="340" fill="#74034e" /><rect width="20" height= "20"  x="199" y="360" fill="#ff0cfc" /><rect width="20" height= "20"  x="199" y="380" fill="#6a0337" /><rect width="20" height= "20"  x="199" y="400" fill="#ff0dff" /><rect width="20" height= "20"  x="199" y="420" fill="#f0067f" /><rect width="20" height= "20"  x="199" y="440" fill="#47023c" /><rect width="20" height= "20"  x="199" y="460" fill="#47023c" /><rect width="20" height= "20"  x="199" y="480" fill="#74034e" /><rect width="20" height= "20"  x="199" y="500" fill="#9e0566" /><rect width="20" height= "20"  x="199" y="520" fill="#32012d" /><rect width="20" height= "20"  x="199" y="540" fill="#9e0566" /><rect width="20" height= "20"  x="199" y="560" fill="#74034e" /><rect width="20" height= "20"  x="199" y="580" fill="#32012d" /><rect width="20" height= "20"  x="199" y="600" fill="#1a011e" /><rect width="20" height= "20"  x="199" y="620" fill="#4f0227" /><rect width="20" height= "20"  x="219" y="200" fill="#9e0566" /><rect width="20" height= "20"  x="219" y="220" fill="#47023c" /><rect width="20" height= "20"  x="219" y="240" fill="#74034e" /><rect width="20" height= "20"  x="219" y="260" fill="#74034e" /><rect width="20" height= "20"  x="219" y="280" fill="#32012d" /><rect width="20" height= "20"  x="219" y="300" fill="#47023c" /><rect width="20" height= "20"  x="219" y="320" fill="#47023c" /><rect width="20" height= "20"  x="219" y="340" fill="#32012d" /><rect width="20" height= "20"  x="219" y="360" fill="#47023c" /><rect width="20" height= "20"  x="219" y="380" fill="#1a011e" /><rect width="20" height= "20"  x="219" y="400" fill="#47023c" /><rect width="20" height= "20"  x="219" y="420" fill="#74034e" /><rect width="20" height= "20"  x="219" y="440" fill="#6a0337" /><rect width="20" height= "20"  x="219" y="460" fill="#9e0566" /><rect width="20" height= "20"  x="219" y="480" fill="#1a011e" /><rect width="20" height= "20"  x="219" y="500" fill="#6a0337" /><rect width="20" height= "20"  x="219" y="520" fill="#ff0dff" /><rect width="20" height= "20"  x="219" y="540" fill="#32012d" /><rect width="20" height= "20"  x="219" y="560" fill="#47023c" /><rect width="20" height= "20"  x="219" y="580" fill="#32012d" /><rect width="20" height= "20"  x="219" y="600" fill="#bc055e" /><rect width="20" height= "20"  x="219" y="620" fill="#1a011e" /><rect width="20" height= "20"  x="219" y="640" fill="#4f0227" /><rect width="20" height= "20"  x="219" y="660" fill="#6a0337" /><rect width="20" height= "20"  x="219" y="680" fill="#6f021e" /><rect width="20" height= "20"  x="219" y="700" fill="#6a0337" /><rect width="20" height= "20"  x="239" y="200" fill="#32012d" /><rect width="20" height= "20"  x="239" y="220" fill="#47023c" /><rect width="20" height= "20"  x="239" y="240" fill="#74034e" /><rect width="20" height= "20"  x="239" y="260" fill="#74034e" /><rect width="20" height= "20"  x="239" y="280" fill="#47023c" /><rect width="20" height= "20"  x="239" y="300" fill="#47023c" /><rect width="20" height= "20"  x="239" y="320" fill="#47023c" /><rect width="20" height= "20"  x="239" y="340" fill="#32012d" /><rect width="20" height= "20"  x="239" y="360" fill="#1a011e" /><rect width="20" height= "20"  x="239" y="380" fill="#74034e" /><rect width="20" height= "20"  x="239" y="400" fill="#d1067d" /><rect width="20" height= "20"  x="239" y="420" fill="#47023c" /><rect width="20" height= "20"  x="239" y="440" fill="#74034e" /><rect width="20" height= "20"  x="239" y="460" fill="#47023c" /><rect width="20" height= "20"  x="239" y="480" fill="#9e0566" /><rect width="20" height= "20"  x="239" y="500" fill="#1a011e" /><rect width="20" height= "20"  x="239" y="520" fill="#74034e" /><rect width="20" height= "20"  x="239" y="540" fill="#ff08ac" /><rect width="20" height= "20"  x="239" y="560" fill="#32012d" /><rect width="20" height= "20"  x="239" y="580" fill="#6a0337" /><rect width="20" height= "20"  x="239" y="600" fill="#6a0337" /><rect width="20" height= "20"  x="239" y="620" fill="#ff09b3" /><rect width="20" height= "20"  x="239" y="640" fill="#1a011e" /><rect width="20" height= "20"  x="239" y="660" fill="#1a0110" /><rect width="20" height= "20"  x="239" y="680" fill="#74034e" /><rect width="20" height= "20"  x="239" y="700" fill="#1a0110" /><rect width="20" height= "20"  x="239" y="720" fill="#6a0337" /><rect width="20" height= "20"  x="259" y="180" fill="#d30687" /><rect width="20" height= "20"  x="259" y="200" fill="#9e0566" /><rect width="20" height= "20"  x="259" y="220" fill="#47023c" /><rect width="20" height= "20"  x="259" y="240" fill="#74034e" /><rect width="20" height= "20"  x="259" y="260" fill="#47023c" /><rect width="20" height= "20"  x="259" y="280" fill="#74034e" /><rect width="20" height= "20"  x="259" y="300" fill="#47023c" /><rect width="20" height= "20"  x="259" y="320" fill="#1a011e" /><rect width="20" height= "20"  x="259" y="340" fill="#32012d" /><rect width="20" height= "20"  x="259" y="360" fill="#74034e" /><rect width="20" height= "20"  x="259" y="380" fill="#74034e" /><rect width="20" height= "20"  x="259" y="400" fill="#74034e" /><rect width="20" height= "20"  x="259" y="420" fill="#32012d" /><rect width="20" height= "20"  x="259" y="440" fill="#47023c" /><rect width="20" height= "20"  x="259" y="460" fill="#6a0337" /><rect width="20" height= "20"  x="259" y="480" fill="#6a0337" /><rect width="20" height= "20"  x="259" y="500" fill="#74034e" /><rect width="20" height= "20"  x="259" y="520" fill="#1a011e" /><rect width="20" height= "20"  x="259" y="540" fill="#32012d" /><rect width="20" height= "20"  x="259" y="560" fill="#74034e" /><rect width="20" height= "20"  x="259" y="580" fill="#6a0337" /><rect width="20" height= "20"  x="259" y="600" fill="#ff0ace" /><rect width="20" height= "20"  x="259" y="620" fill="#47023c" /><rect width="20" height= "20"  x="259" y="640" fill="#bc055e" /><rect width="20" height= "20"  x="259" y="660" fill="#1a011e" /><rect width="20" height= "20"  x="259" y="680" fill="#1a0110" /><rect width="20" height= "20"  x="259" y="720" fill="#bc0450" /><rect width="20" height= "20"  x="259" y="740" fill="#4a0117" /><rect width="20" height= "20"  x="279" y="160" fill="#9e0566" /><rect width="20" height= "20"  x="279" y="180" fill="#d1067d" /><rect width="20" height= "20"  x="279" y="200" fill="#47023c" /><rect width="20" height= "20"  x="279" y="220" fill="#74034e" /><rect width="20" height= "20"  x="279" y="240" fill="#ff0eff" /><rect width="20" height= "20"  x="279" y="260" fill="#74034e" /><rect width="20" height= "20"  x="279" y="280" fill="#47023c" /><rect width="20" height= "20"  x="279" y="300" fill="#32012d" /><rect width="20" height= "20"  x="279" y="320" fill="#47023c" /><rect width="20" height= "20"  x="279" y="340" fill="#47023c" /><rect width="20" height= "20"  x="279" y="360" fill="#9e0566" /><rect width="20" height= "20"  x="279" y="380" fill="#1a011e" /><rect width="20" height= "20"  x="279" y="400" fill="#47023c" /><rect width="20" height= "20"  x="279" y="420" fill="#1a011e" /><rect width="20" height= "20"  x="279" y="440" fill="#47023c" /><rect width="20" height= "20"  x="279" y="460" fill="#6a0337" /><rect width="20" height= "20"  x="279" y="480" fill="#32012d" /><rect width="20" height= "20"  x="279" y="500" fill="#32012d" /><rect width="20" height= "20"  x="279" y="520" fill="#1a011e" /><rect width="20" height= "20"  x="279" y="540" fill="#1a011e" /><rect width="20" height= "20"  x="279" y="560" fill="#1a0110" /><rect width="20" height= "20"  x="279" y="580" fill="#47023c" /><rect width="20" height= "20"  x="279" y="600" fill="#6a0337" /><rect width="20" height= "20"  x="279" y="620" fill="#6a0337" /><rect width="20" height= "20"  x="279" y="640" fill="#970458" /><rect width="20" height= "20"  x="279" y="660" fill="#74034e" /><rect width="20" height= "20"  x="279" y="680" fill="#a6043f" /><rect width="20" height= "20"  x="279" y="700" fill="#d30687" /><rect width="20" height= "20"  x="279" y="720" fill="#4f0227" /><rect width="20" height= "20"  x="279" y="740" fill="#6a0337" /><rect width="20" height= "20"  x="279" y="760" fill="#1a0110" /><rect width="20" height= "20"  x="299" y="160" fill="#74034e" /><rect width="20" height= "20"  x="299" y="180" fill="#1a011e" /><rect width="20" height= "20"  x="299" y="200" fill="#47023c" /><rect width="20" height= "20"  x="299" y="220" fill="#74034e" /><rect width="20" height= "20"  x="299" y="240" fill="#74034e" /><rect width="20" height= "20"  x="299" y="260" fill="#fe08b5" /><rect width="20" height= "20"  x="299" y="280" fill="#74034e" /><rect width="20" height= "20"  x="299" y="300" fill="#47023c" /><rect width="20" height= "20"  x="299" y="320" fill="#1a011e" /><rect width="20" height= "20"  x="299" y="340" fill="#47023c" /><rect width="20" height= "20"  x="299" y="360" fill="#1a011e" /><rect width="20" height= "20"  x="299" y="380" fill="#9e0566" /><rect width="20" height= "20"  x="299" y="400" fill="#47023c" /><rect width="20" height= "20"  x="299" y="420" fill="#47023c" /><rect width="20" height= "20"  x="299" y="440" fill="#1a0110" /><rect width="20" height= "20"  x="299" y="460" fill="#32012d" /><rect width="20" height= "20"  x="299" y="480" fill="#9e0566" /><rect width="20" height= "20"  x="299" y="500" fill="#9e0566" /><rect width="20" height= "20"  x="299" y="520" fill="#47023c" /><rect width="20" height= "20"  x="299" y="540" fill="#1a011e" /><rect width="20" height= "20"  x="299" y="560" fill="#47023c" /><rect width="20" height= "20"  x="299" y="580" fill="#47023c" /><rect width="20" height= "20"  x="299" y="600" fill="#1a0110" /><rect width="20" height= "20"  x="299" y="620" fill="#1a0110" /><rect width="20" height= "20"  x="299" y="640" fill="#1a011e" /><rect width="20" height= "20"  x="299" y="660" fill="#32012d" /><rect width="20" height= "20"  x="299" y="680" fill="#1a011e" /><rect width="20" height= "20"  x="299" y="700" fill="#1a011e" /><rect width="20" height= "20"  x="299" y="720" fill="#ff0bea" /><rect width="20" height= "20"  x="299" y="760" fill="#4a0117" /><rect width="20" height= "20"  x="299" y="780" fill="#4f0227" /><rect width="20" height= "20"  x="319" y="160" fill="#9e0566" /><rect width="20" height= "20"  x="319" y="180" fill="#47023c" /><rect width="20" height= "20"  x="319" y="200" fill="#47023c" /><rect width="20" height= "20"  x="319" y="220" fill="#74034e" /><rect width="20" height= "20"  x="319" y="240" fill="#74034e" /><rect width="20" height= "20"  x="319" y="260" fill="#1a0110" /><rect width="20" height= "20"  x="319" y="280" fill="#74034e" /><rect width="20" height= "20"  x="319" y="300" fill="#47023c" /><rect width="20" height= "20"  x="319" y="320" fill="#32012d" /><rect width="20" height= "20"  x="319" y="340" fill="#47023c" /><rect width="20" height= "20"  x="319" y="360" fill="#74034e" /><rect width="20" height= "20"  x="319" y="380" fill="#47023c" /><rect width="20" height= "20"  x="319" y="400" fill="#47023c" /><rect width="20" height= "20"  x="319" y="420" fill="#32012d" /><rect width="20" height= "20"  x="319" y="440" fill="#47023c" /><rect width="20" height= "20"  x="319" y="460" fill="#47023c" /><rect width="20" height= "20"  x="319" y="480" fill="#1a011e" /><rect width="20" height= "20"  x="319" y="500" fill="#9e0566" /><rect width="20" height= "20"  x="319" y="520" fill="#32012d" /><rect width="20" height= "20"  x="319" y="540" fill="#47023c" /><rect width="20" height= "20"  x="319" y="560" fill="#32012d" /><rect width="20" height= "20"  x="319" y="580" fill="#32012d" /><rect width="20" height= "20"  x="319" y="600" fill="#f60796" /><rect width="20" height= "20"  x="319" y="620" fill="#bc055e" /><rect width="20" height= "20"  x="319" y="640" fill="#1a011e" /><rect width="20" height= "20"  x="319" y="660" fill="#47023c" /><rect width="20" height= "20"  x="319" y="680" fill="#1a011e" /><rect width="20" height= "20"  x="319" y="720" fill="#32012d" /><rect width="20" height= "20"  x="319" y="740" fill="#6a0337" /><rect width="20" height= "20"  x="319" y="760" fill="#32012d" /><rect width="20" height= "20"  x="319" y="780" fill="#1a0110" /><rect width="20" height= "20"  x="339" y="140" fill="#9e0566" /><rect width="20" height= "20"  x="339" y="160" fill="#74034e" /><rect width="20" height= "20"  x="339" y="180" fill="#6a0337" /><rect width="20" height= "20"  x="339" y="200" fill="#47023c" /><rect width="20" height= "20"  x="339" y="220" fill="#47023c" /><rect width="20" height= "20"  x="339" y="240" fill="#74034e" /><rect width="20" height= "20"  x="339" y="260" fill="#47023c" /><rect width="20" height= "20"  x="339" y="280" fill="#47023c" /><rect width="20" height= "20"  x="339" y="300" fill="#47023c" /><rect width="20" height= "20"  x="339" y="320" fill="#970458" /><rect width="20" height= "20"  x="339" y="340" fill="#32012d" /><rect width="20" height= "20"  x="339" y="360" fill="#47023c" /><rect width="20" height= "20"  x="339" y="380" fill="#74034e" /><rect width="20" height= "20"  x="339" y="400" fill="#47023c" /><rect width="20" height= "20"  x="339" y="420" fill="#74034e" /><rect width="20" height= "20"  x="339" y="440" fill="#74034e" /><rect width="20" height= "20"  x="339" y="460" fill="#47023c" /><rect width="20" height= "20"  x="339" y="480" fill="#970458" /><rect width="20" height= "20"  x="339" y="500" fill="#47023c" /><rect width="20" height= "20"  x="339" y="520" fill="#1a011e" /><rect width="20" height= "20"  x="339" y="540" fill="#ff0ace" /><rect width="20" height= "20"  x="339" y="560" fill="#1a0110" /><rect width="20" height= "20"  x="339" y="580" fill="#32012d" /><rect width="20" height= "20"  x="339" y="600" fill="#32012d" /><rect width="20" height= "20"  x="339" y="620" fill="#1a0110" /><rect width="20" height= "20"  x="339" y="640" fill="#32012d" /><rect width="20" height= "20"  x="339" y="660" fill="#1a0110" /><rect width="20" height= "20"  x="339" y="680" fill="#1a011e" /><rect width="20" height= "20"  x="339" y="720" fill="#f0067f" /><rect width="20" height= "20"  x="339" y="740" fill="#1a011e" /><rect width="20" height= "20"  x="339" y="760" fill="#1a0110" /><rect width="20" height= "20"  x="339" y="780" fill="#4a0117" /><rect width="20" height= "20"  x="339" y="800" fill="#4a0117" /><rect width="20" height= "20"  x="359" y="140" fill="#a90571" /><rect width="20" height= "20"  x="359" y="160" fill="#32012d" /><rect width="20" height= "20"  x="359" y="180" fill="#47023c" /><rect width="20" height= "20"  x="359" y="200" fill="#47023c" /><rect width="20" height= "20"  x="359" y="220" fill="#47023c" /><rect width="20" height= "20"  x="359" y="240" fill="#47023c" /><rect width="20" height= "20"  x="359" y="260" fill="#1a011e" /><rect width="20" height= "20"  x="359" y="280" fill="#47023c" /><rect width="20" height= "20"  x="359" y="300" fill="#1a011e" /><rect width="20" height= "20"  x="359" y="320" fill="#1a011e" /><rect width="20" height= "20"  x="359" y="340" fill="#74034e" /><rect width="20" height= "20"  x="359" y="360" fill="#47023c" /><rect width="20" height= "20"  x="359" y="380" fill="#47023c" /><rect width="20" height= "20"  x="359" y="400" fill="#47023c" /><rect width="20" height= "20"  x="359" y="420" fill="#1a011e" /><rect width="20" height= "20"  x="359" y="440" fill="#1a011e" /><rect width="20" height= "20"  x="359" y="460" fill="#32012d" /><rect width="20" height= "20"  x="359" y="480" fill="#9e0566" /><rect width="20" height= "20"  x="359" y="500" fill="#1a011e" /><rect width="20" height= "20"  x="359" y="520" fill="#74034e" /><rect width="20" height= "20"  x="359" y="540" fill="#ff0dff" /><rect width="20" height= "20"  x="359" y="560" fill="#bc055e" /><rect width="20" height= "20"  x="359" y="580" fill="#47023c" /><rect width="20" height= "20"  x="359" y="600" fill="#9e0566" /><rect width="20" height= "20"  x="359" y="620" fill="#1a011e" /><rect width="20" height= "20"  x="359" y="640" fill="#1a011e" /><rect width="20" height= "20"  x="359" y="660" fill="#32012d" /><rect width="20" height= "20"  x="359" y="680" fill="#32012d" /><rect width="20" height= "20"  x="359" y="700" fill="#1a011e" /><rect width="20" height= "20"  x="359" y="760" fill="#1a0110" /><rect width="20" height= "20"  x="359" y="780" fill="#6a0337" /><rect width="20" height= "20"  x="359" y="800" fill="#1a0110" /><rect width="20" height= "20"  x="379" y="140" fill="#f0067f" /><rect width="20" height= "20"  x="379" y="160" fill="#74034e" /><rect width="20" height= "20"  x="379" y="180" fill="#47023c" /><rect width="20" height= "20"  x="379" y="200" fill="#1a011e" /><rect width="20" height= "20"  x="379" y="220" fill="#ff0ace" /><rect width="20" height= "20"  x="379" y="240" fill="#74034e" /><rect width="20" height= "20"  x="379" y="260" fill="#32012d" /><rect width="20" height= "20"  x="379" y="280" fill="#47023c" /><rect width="20" height= "20"  x="379" y="300" fill="#1a011e" /><rect width="20" height= "20"  x="379" y="320" fill="#74034e" /><rect width="20" height= "20"  x="379" y="340" fill="#74034e" /><rect width="20" height= "20"  x="379" y="360" fill="#47023c" /><rect width="20" height= "20"  x="379" y="380" fill="#74034e" /><rect width="20" height= "20"  x="379" y="400" fill="#74034e" /><rect width="20" height= "20"  x="379" y="420" fill="#9e0566" /><rect width="20" height= "20"  x="379" y="440" fill="#32012d" /><rect width="20" height= "20"  x="379" y="460" fill="#74034e" /><rect width="20" height= "20"  x="379" y="480" fill="#47023c" /><rect width="20" height= "20"  x="379" y="500" fill="#47023c" /><rect width="20" height= "20"  x="379" y="520" fill="#47023c" /><rect width="20" height= "20"  x="379" y="540" fill="#ff0bf0" /><rect width="20" height= "20"  x="379" y="560" fill="#1a0110" /><rect width="20" height= "20"  x="379" y="580" fill="#9e0566" /><rect width="20" height= "20"  x="379" y="600" fill="#1a0110" /><rect width="20" height= "20"  x="379" y="620" fill="#32012d" /><rect width="20" height= "20"  x="379" y="660" fill="#32012d" /><rect width="20" height= "20"  x="379" y="680" fill="#1a0110" /><rect width="20" height= "20"  x="379" y="700" fill="#1a0110" /><rect width="20" height= "20"  x="379" y="720" fill="#1a011e" /><rect width="20" height= "20"  x="379" y="740" fill="#9e0566" /><rect width="20" height= "20"  x="379" y="760" fill="#1a011e" /><rect width="20" height= "20"  x="379" y="780" fill="#1a0110" /><rect width="20" height= "20"  x="379" y="800" fill="#4f0227" /><rect width="20" height= "20"  x="399" y="140" fill="#ff0791" /><rect width="20" height= "20"  x="399" y="160" fill="#47023c" /><rect width="20" height= "20"  x="399" y="180" fill="#74034e" /><rect width="20" height= "20"  x="399" y="200" fill="#47023c" /><rect width="20" height= "20"  x="399" y="220" fill="#1a011e" /><rect width="20" height= "20"  x="399" y="240" fill="#47023c" /><rect width="20" height= "20"  x="399" y="260" fill="#74034e" /><rect width="20" height= "20"  x="399" y="280" fill="#1a011e" /><rect width="20" height= "20"  x="399" y="300" fill="#47023c" /><rect width="20" height= "20"  x="399" y="320" fill="#47023c" /><rect width="20" height= "20"  x="399" y="340" fill="#1a011e" /><rect width="20" height= "20"  x="399" y="360" fill="#47023c" /><rect width="20" height= "20"  x="399" y="380" fill="#1a011e" /><rect width="20" height= "20"  x="399" y="400" fill="#47023c" /><rect width="20" height= "20"  x="399" y="420" fill="#1a0110" /><rect width="20" height= "20"  x="399" y="440" fill="#1a011e" /><rect width="20" height= "20"  x="399" y="460" fill="#1a011e" /><rect width="20" height= "20"  x="399" y="500" fill="#47023c" /><rect width="20" height= "20"  x="399" y="520" fill="#1a0110" /><rect width="20" height= "20"  x="399" y="540" fill="#9e0566" /><rect width="20" height= "20"  x="399" y="560" fill="#32012d" /><rect width="20" height= "20"  x="399" y="580" fill="#a90571" /><rect width="20" height= "20"  x="399" y="600" fill="#1a011e" /><rect width="20" height= "20"  x="399" y="620" fill="#74034e" /><rect width="20" height= "20"  x="399" y="660" fill="#f0067f" /><rect width="20" height= "20"  x="399" y="680" fill="#970458" /><rect width="20" height= "20"  x="399" y="700" fill="#1a011e" /><rect width="20" height= "20"  x="399" y="720" fill="#890330" /><rect width="20" height= "20"  x="399" y="760" fill="#1a0110" /><rect width="20" height= "20"  x="399" y="780" fill="#4a0117" /><rect width="20" height= "20"  x="419" y="140" fill="#d1067d" /><rect width="20" height= "20"  x="419" y="160" fill="#1a011e" /><rect width="20" height= "20"  x="419" y="180" fill="#74034e" /><rect width="20" height= "20"  x="419" y="200" fill="#47023c" /><rect width="20" height= "20"  x="419" y="220" fill="#32012d" /><rect width="20" height= "20"  x="419" y="240" fill="#74034e" /><rect width="20" height= "20"  x="419" y="260" fill="#1a011e" /><rect width="20" height= "20"  x="419" y="280" fill="#ff09d6" /><rect width="20" height= "20"  x="419" y="300" fill="#1a011e" /><rect width="20" height= "20"  x="419" y="320" fill="#47023c" /><rect width="20" height= "20"  x="419" y="340" fill="#ff09b7" /><rect width="20" height= "20"  x="419" y="360" fill="#47023c" /><rect width="20" height= "20"  x="419" y="380" fill="#47023c" /><rect width="20" height= "20"  x="419" y="400" fill="#1a011e" /><rect width="20" height= "20"  x="419" y="420" fill="#ff0dff" /><rect width="20" height= "20"  x="419" y="440" fill="#1a011e" /><rect width="20" height= "20"  x="419" y="460" fill="#47023c" /><rect width="20" height= "20"  x="419" y="480" fill="#1a011e" /><rect width="20" height= "20"  x="419" y="500" fill="#47023c" /><rect width="20" height= "20"  x="419" y="520" fill="#1a011e" /><rect width="20" height= "20"  x="419" y="540" fill="#47023c" /><rect width="20" height= "20"  x="419" y="580" fill="#47023c" /><rect width="20" height= "20"  x="419" y="620" fill="#47023c" /><rect width="20" height= "20"  x="419" y="660" fill="#32012d" /><rect width="20" height= "20"  x="419" y="700" fill="#1a011e" /><rect width="20" height= "20"  x="419" y="720" fill="#1a0110" /><rect width="20" height= "20"  x="419" y="740" fill="#1a0110" /><rect width="20" height= "20"  x="439" y="160" fill="#74034e" /><rect width="20" height= "20"  x="439" y="180" fill="#1a011e" /><rect width="20" height= "20"  x="439" y="200" fill="#47023c" /><rect width="20" height= "20"  x="439" y="220" fill="#47023c" /><rect width="20" height= "20"  x="439" y="240" fill="#74034e" /><rect width="20" height= "20"  x="439" y="260" fill="#47023c" /><rect width="20" height= "20"  x="439" y="280" fill="#32012d" /><rect width="20" height= "20"  x="439" y="300" fill="#1a0110" /><rect width="20" height= "20"  x="439" y="320" fill="#47023c" /><rect width="20" height= "20"  x="439" y="340" fill="#1a0110" /><rect width="20" height= "20"  x="439" y="360" fill="#47023c" /><rect width="20" height= "20"  x="439" y="380" fill="#47023c" /><rect width="20" height= "20"  x="439" y="400" fill="#47023c" /><rect width="20" height= "20"  x="439" y="420" fill="#32012d" /><rect width="20" height= "20"  x="439" y="460" fill="#32012d" /><rect width="20" height= "20"  x="439" y="480" fill="#1a0110" /><rect width="20" height= "20"  x="439" y="500" fill="#1a011e" /><rect width="20" height= "20"  x="439" y="520" fill="#1a011e" /><rect width="20" height= "20"  x="439" y="540" fill="#1a011e" /><rect width="20" height= "20"  x="439" y="560" fill="#47023c" /><rect width="20" height= "20"  x="439" y="580" fill="#d1067d" /><rect width="20" height= "20"  x="439" y="600" fill="#1a011e" /><rect width="20" height= "20"  x="439" y="620" fill="#32012d" /><rect width="20" height= "20"  x="439" y="640" fill="#1a011e" /><rect width="20" height= "20"  x="439" y="660" fill="#47023c" /><rect width="20" height= "20"  x="439" y="680" fill="#1a011e" /><rect width="20" height= "20"  x="439" y="700" fill="#1a011e" /><rect width="20" height= "20"  x="439" y="720" fill="#1a011e" /><rect width="20" height= "20"  x="439" y="760" fill="#1a011e" /><rect width="20" height= "20"  x="439" y="780" fill="#1a0110" /><rect width="20" height= "20"  x="439" y="800" fill="#1a0110" /><rect width="20" height= "20"  x="459" y="140" fill="#ff0bea" /><rect width="20" height= "20"  x="459" y="160" fill="#74034e" /><rect width="20" height= "20"  x="459" y="180" fill="#74034e" /><rect width="20" height= "20"  x="459" y="200" fill="#1a011e" /><rect width="20" height= "20"  x="459" y="220" fill="#32012d" /><rect width="20" height= "20"  x="459" y="240" fill="#1a011e" /><rect width="20" height= "20"  x="459" y="260" fill="#74034e" /><rect width="20" height= "20"  x="459" y="280" fill="#47023c" /><rect width="20" height= "20"  x="459" y="300" fill="#74034e" /><rect width="20" height= "20"  x="459" y="320" fill="#47023c" /><rect width="20" height= "20"  x="459" y="340" fill="#1a0110" /><rect width="20" height= "20"  x="459" y="360" fill="#47023c" /><rect width="20" height= "20"  x="459" y="380" fill="#1a0110" /><rect width="20" height= "20"  x="459" y="400" fill="#6a0337" /><rect width="20" height= "20"  x="459" y="420" fill="#32012d" /><rect width="20" height= "20"  x="459" y="440" fill="#1a011e" /><rect width="20" height= "20"  x="459" y="460" fill="#1a011e" /><rect width="20" height= "20"  x="459" y="480" fill="#74034e" /><rect width="20" height= "20"  x="459" y="500" fill="#32012d" /><rect width="20" height= "20"  x="459" y="520" fill="#47023c" /><rect width="20" height= "20"  x="459" y="540" fill="#1a011e" /><rect width="20" height= "20"  x="459" y="560" fill="#47023c" /><rect width="20" height= "20"  x="459" y="580" fill="#32012d" /><rect width="20" height= "20"  x="459" y="600" fill="#32012d" /><rect width="20" height= "20"  x="459" y="620" fill="#1a0110" /><rect width="20" height= "20"  x="459" y="640" fill="#1a011e" /><rect width="20" height= "20"  x="459" y="660" fill="#32012d" /><rect width="20" height= "20"  x="459" y="700" fill="#1a0110" /><rect width="20" height= "20"  x="459" y="720" fill="#1a0110" /><rect width="20" height= "20"  x="459" y="740" fill="#1a011e" /><rect width="20" height= "20"  x="459" y="760" fill="#4a0117" /><rect width="20" height= "20"  x="459" y="780" fill="#bc0450" /><rect width="20" height= "20"  x="459" y="800" fill="#6f021e" /><rect width="20" height= "20"  x="479" y="160" fill="#ff09c4" /><rect width="20" height= "20"  x="479" y="180" fill="#1a011e" /><rect width="20" height= "20"  x="479" y="200" fill="#74034e" /><rect width="20" height= "20"  x="479" y="220" fill="#47023c" /><rect width="20" height= "20"  x="479" y="240" fill="#47023c" /><rect width="20" height= "20"  x="479" y="260" fill="#1a011e" /><rect width="20" height= "20"  x="479" y="280" fill="#1a011e" /><rect width="20" height= "20"  x="479" y="300" fill="#74034e" /><rect width="20" height= "20"  x="479" y="320" fill="#32012d" /><rect width="20" height= "20"  x="479" y="340" fill="#74034e" /><rect width="20" height= "20"  x="479" y="360" fill="#1a011e" /><rect width="20" height= "20"  x="479" y="380" fill="#1a011e" /><rect width="20" height= "20"  x="479" y="400" fill="#1a011e" /><rect width="20" height= "20"  x="479" y="420" fill="#32012d" /><rect width="20" height= "20"  x="479" y="440" fill="#1a011e" /><rect width="20" height= "20"  x="479" y="460" fill="#ff08a0" /><rect width="20" height= "20"  x="479" y="480" fill="#32012d" /><rect width="20" height= "20"  x="479" y="500" fill="#fe055b" /><rect width="20" height= "20"  x="479" y="520" fill="#1a0110" /><rect width="20" height= "20"  x="479" y="560" fill="#32012d" /><rect width="20" height= "20"  x="479" y="580" fill="#1a0110" /><rect width="20" height= "20"  x="479" y="600" fill="#32012d" /><rect width="20" height= "20"  x="479" y="620" fill="#1a0110" /><rect width="20" height= "20"  x="479" y="640" fill="#32012d" /><rect width="20" height= "20"  x="479" y="660" fill="#32012d" /><rect width="20" height= "20"  x="479" y="680" fill="#1a0110" /><rect width="20" height= "20"  x="479" y="740" fill="#1a0110" /><rect width="20" height= "20"  x="479" y="780" fill="#6f020b" /><rect width="20" height= "20"  x="479" y="800" fill="#6f021e" /><rect width="20" height= "20"  x="499" y="180" fill="#9e0566" /><rect width="20" height= "20"  x="499" y="200" fill="#1a011e" /><rect width="20" height= "20"  x="499" y="220" fill="#32012d" /><rect width="20" height= "20"  x="499" y="240" fill="#74034e" /><rect width="20" height= "20"  x="499" y="260" fill="#1a0110" /><rect width="20" height= "20"  x="499" y="280" fill="#47023c" /><rect width="20" height= "20"  x="499" y="300" fill="#47023c" /><rect width="20" height= "20"  x="499" y="320" fill="#47023c" /><rect width="20" height= "20"  x="499" y="340" fill="#1a011e" /><rect width="20" height= "20"  x="499" y="360" fill="#1a0110" /><rect width="20" height= "20"  x="499" y="380" fill="#1a011e" /><rect width="20" height= "20"  x="499" y="400" fill="#1a011e" /><rect width="20" height= "20"  x="499" y="420" fill="#1a011e" /><rect width="20" height= "20"  x="499" y="440" fill="#47023c" /><rect width="20" height= "20"  x="499" y="460" fill="#1a011e" /><rect width="20" height= "20"  x="499" y="480" fill="#32012d" /><rect width="20" height= "20"  x="499" y="520" fill="#1a011e" /><rect width="20" height= "20"  x="499" y="540" fill="#32012d" /><rect width="20" height= "20"  x="499" y="560" fill="#1a011e" /><rect width="20" height= "20"  x="499" y="580" fill="#1a0110" /><rect width="20" height= "20"  x="499" y="600" fill="#1a011e" /><rect width="20" height= "20"  x="499" y="620" fill="#1a011e" /><rect width="20" height= "20"  x="499" y="640" fill="#1a0110" /><rect width="20" height= "20"  x="499" y="660" fill="#1a0110" /><rect width="20" height= "20"  x="499" y="680" fill="#1a0110" /><rect width="20" height= "20"  x="499" y="700" fill="#1a011e" /><rect width="20" height= "20"  x="499" y="720" fill="#4f0227" /><rect width="20" height= "20"  x="499" y="740" fill="#1a011e" /><rect width="20" height= "20"  x="499" y="760" fill="#890330" /><rect width="20" height= "20"  x="499" y="780" fill="#5a0100" /><rect width="20" height= "20"  x="519" y="200" fill="#9e0566" /><rect width="20" height= "20"  x="519" y="220" fill="#57034c" /><rect width="20" height= "20"  x="519" y="240" fill="#1a011e" /><rect width="20" height= "20"  x="519" y="260" fill="#1a011e" /><rect width="20" height= "20"  x="519" y="280" fill="#47023c" /><rect width="20" height= "20"  x="519" y="300" fill="#1a0110" /><rect width="20" height= "20"  x="519" y="320" fill="#47023c" /><rect width="20" height= "20"  x="519" y="340" fill="#1a011e" /><rect width="20" height= "20"  x="519" y="360" fill="#47023c" /><rect width="20" height= "20"  x="519" y="380" fill="#1a0110" /><rect width="20" height= "20"  x="519" y="400" fill="#47023c" /><rect width="20" height= "20"  x="519" y="440" fill="#1a011e" /><rect width="20" height= "20"  x="519" y="460" fill="#1a011e" /><rect width="20" height= "20"  x="519" y="480" fill="#1a0110" /><rect width="20" height= "20"  x="519" y="500" fill="#1a011e" /><rect width="20" height= "20"  x="519" y="520" fill="#1a0110" /><rect width="20" height= "20"  x="519" y="560" fill="#1a011e" /><rect width="20" height= "20"  x="519" y="600" fill="#47023c" /><rect width="20" height= "20"  x="519" y="620" fill="#1a011e" /><rect width="20" height= "20"  x="519" y="640" fill="#1a011e" /><rect width="20" height= "20"  x="519" y="660" fill="#1a011e" /><rect width="20" height= "20"  x="519" y="680" fill="#bc055e" /><rect width="20" height= "20"  x="519" y="700" fill="#f0067f" /><rect width="20" height= "20"  x="519" y="720" fill="#32012d" /><rect width="20" height= "20"  x="519" y="740" fill="#6f021e" /><rect width="20" height= "20"  x="519" y="760" fill="#be0429" /><rect width="20" height= "20"  x="539" y="220" fill="#74034e" /><rect width="20" height= "20"  x="539" y="240" fill="#1a0110" /><rect width="20" height= "20"  x="539" y="260" fill="#47023c" /><rect width="20" height= "20"  x="539" y="280" fill="#47023c" /><rect width="20" height= "20"  x="539" y="300" fill="#47023c" /><rect width="20" height= "20"  x="539" y="320" fill="#1a011e" /><rect width="20" height= "20"  x="539" y="340" fill="#1a011e" /><rect width="20" height= "20"  x="539" y="360" fill="#1a011e" /><rect width="20" height= "20"  x="539" y="380" fill="#1a011e" /><rect width="20" height= "20"  x="539" y="400" fill="#1a011e" /><rect width="20" height= "20"  x="539" y="420" fill="#47023c" /><rect width="20" height= "20"  x="539" y="440" fill="#32012d" /><rect width="20" height= "20"  x="539" y="460" fill="#1a0110" /><rect width="20" height= "20"  x="539" y="480" fill="#f0067f" /><rect width="20" height= "20"  x="539" y="500" fill="#1a011e" /><rect width="20" height= "20"  x="539" y="520" fill="#d30687" /><rect width="20" height= "20"  x="539" y="540" fill="#47023c" /><rect width="20" height= "20"  x="539" y="560" fill="#47023c" /><rect width="20" height= "20"  x="539" y="600" fill="#1a0110" /><rect width="20" height= "20"  x="539" y="620" fill="#32012d" /><rect width="20" height= "20"  x="539" y="640" fill="#a90571" /><rect width="20" height= "20"  x="539" y="660" fill="#9e0566" /><rect width="20" height= "20"  x="539" y="680" fill="#1a011e" /><rect width="20" height= "20"  x="539" y="700" fill="#f60787" /><rect width="20" height= "20"  x="559" y="240" fill="#ff08a0" /><rect width="20" height= "20"  x="559" y="260" fill="#d30687" /><rect width="20" height= "20"  x="559" y="280" fill="#32012d" /><rect width="20" height= "20"  x="559" y="300" fill="#32012d" /><rect width="20" height= "20"  x="559" y="320" fill="#1a0110" /><rect width="20" height= "20"  x="559" y="340" fill="#a90571" /><rect width="20" height= "20"  x="559" y="360" fill="#1a011e" /><rect width="20" height= "20"  x="559" y="380" fill="#9e0566" /><rect width="20" height= "20"  x="559" y="400" fill="#32012d" /><rect width="20" height= "20"  x="559" y="420" fill="#47023c" /><rect width="20" height= "20"  x="559" y="440" fill="#32012d" /><rect width="20" height= "20"  x="559" y="460" fill="#1a0110" /><rect width="20" height= "20"  x="559" y="480" fill="#1a0110" /><rect width="20" height= "20"  x="559" y="500" fill="#1a011e" /><rect width="20" height= "20"  x="559" y="520" fill="#1a011e" /><rect width="20" height= "20"  x="559" y="540" fill="#ff0791" /><rect width="20" height= "20"  x="559" y="560" fill="#1a011e" /><rect width="20" height= "20"  x="559" y="580" fill="#1a011e" /><rect width="20" height= "20"  x="559" y="600" fill="#32012d" /><rect width="20" height= "20"  x="559" y="620" fill="#f60796" /><rect width="20" height= "20"  x="559" y="640" fill="#74034e" /><rect width="20" height= "20"  x="559" y="660" fill="#ff08a0" /><rect width="20" height= "20"  x="579" y="280" fill="#74034e" /><rect width="20" height= "20"  x="579" y="300" fill="#47023c" /><rect width="20" height= "20"  x="579" y="320" fill="#74034e" /><rect width="20" height= "20"  x="579" y="340" fill="#32012d" /><rect width="20" height= "20"  x="579" y="360" fill="#74034e" /><rect width="20" height= "20"  x="579" y="380" fill="#32012d" /><rect width="20" height= "20"  x="579" y="400" fill="#6a0337" /><rect width="20" height= "20"  x="579" y="420" fill="#f0067f" /><rect width="20" height= "20"  x="579" y="440" fill="#1a011e" /><rect width="20" height= "20"  x="579" y="460" fill="#970458" /><rect width="20" height= "20"  x="579" y="480" fill="#1a0110" /><rect width="20" height= "20"  x="579" y="500" fill="#32012d" /><rect width="20" height= "20"  x="579" y="520" fill="#74034e" /><rect width="20" height= "20"  x="579" y="540" fill="#f60796" /><rect width="20" height= "20"  x="579" y="560" fill="#9e0566" /><rect width="20" height= "20"  x="579" y="580" fill="#ff08a0" /></svg>