<svg width="780" height="1000" viewbox ="0,0,780,1000" xmlns="http://www.w3.org/2000/svg" shape-rendering="crispEdges"><rect width="20" height= "20"  x="197" y="699" fill="#00000000" /><rect width="20" height= "20"  x="217" y="699" fill="#00000000" /><rect width="20" height= "20"  x="237" y="699" fill="#b3a99b" /><rect width="20" height= "20"  x="257" y="699" fill="#00000000" /><rect width="20" height= "20"  x="277" y="699" fill="#00000000" /><rect width="20" height= "20"  x="297" y="699" fill="#00000000" /><rect width="20" height= "20"  x="317" y="699" fill="#00000000" /><rect width="20" height= "20"  x="337" y="699" fill="#00000000" /><rect width="20" height= "20"  x="357" y="699" fill="#00000000" /><rect width="20" height= "20"  x="377" y="699" fill="#00000000" /><rect width="20" height= "20"  x="397" y="699" fill="#00000000" /><rect width="20" height= "20"  x="197" y="719" fill="#00000000" /><rect width="20" height= "20"  x="217" y="719" fill="#2e1104" /><rect width="20" height= "20"  x="237" y="719" fill="#7f6e58" /><rect width="20" height= "20"  x="257" y="719" fill="#c8beb2" /><rect width="20" height= "20"  x="277" y="719" fill="#00000000" /><rect width="20" height= "20"  x="297" y="719" fill="#00000000" /><rect width="20" height= "20"  x="317" y="719" fill="#00000000" /><rect width="20" height= "20"  x="337" y="719" fill="#00000000" /><rect width="20" height= "20"  x="357" y="719" fill="#00000000" /><rect width="20" height= "20"  x="377" y="719" fill="#00000000" /><rect width="20" height= "20"  x="397" y="719" fill="#00000000" /><rect width="20" height= "20"  x="197" y="739" fill="#00000000" /><rect width="20" height= "20"  x="217" y="739" fill="#42271b" /><rect width="20" height= "20"  x="237" y="739" fill="#4f3725" /><rect width="20" height= "20"  x="257" y="739" fill="#c8beb2" /><rect width="20" height= "20"  x="277" y="739" fill="#c8beb2" /><rect width="20" height= "20"  x="297" y="739" fill="#00000000" /><rect width="20" height= "20"  x="317" y="739" fill="#00000000" /><rect width="20" height= "20"  x="337" y="739" fill="#00000000" /><rect width="20" height= "20"  x="357" y="739" fill="#00000000" /><rect width="20" height= "20"  x="377" y="739" fill="#00000000" /><rect width="20" height= "20"  x="397" y="739" fill="#00000000" /><rect width="20" height= "20"  x="197" y="759" fill="#00000000" /><rect width="20" height= "20"  x="217" y="759" fill="#42271b" /><rect width="20" height= "20"  x="237" y="759" fill="#4f3725" /><rect width="20" height= "20"  x="257" y="759" fill="#928272" /><rect width="20" height= "20"  x="277" y="759" fill="#b3a99b" /><rect width="20" height= "20"  x="297" y="759" fill="#b3a99b" /><rect width="20" height= "20"  x="317" y="759" fill="#00000000" /><rect width="20" height= "20"  x="337" y="759" fill="#00000000" /><rect width="20" height= "20"  x="357" y="759" fill="#00000000" /><rect width="20" height= "20"  x="377" y="759" fill="#00000000" /><rect width="20" height= "20"  x="397" y="759" fill="#00000000" /><rect width="20" height= "20"  x="197" y="779" fill="#00000000" /><rect width="20" height= "20"  x="217" y="779" fill="#4f3725" /><rect width="20" height= "20"  x="237" y="779" fill="#4f3725" /><rect width="20" height= "20"  x="257" y="779" fill="#4f3725" /><rect width="20" height= "20"  x="277" y="779" fill="#7f6e58" /><rect width="20" height= "20"  x="297" y="779" fill="#a79683" /><rect width="20" height= "20"  x="317" y="779" fill="#a79683" /><rect width="20" height= "20"  x="337" y="779" fill="#00000000" /><rect width="20" height= "20"  x="357" y="779" fill="#00000000" /><rect width="20" height= "20"  x="377" y="779" fill="#00000000" /><rect width="20" height= "20"  x="397" y="779" fill="#00000000" /><rect width="20" height= "20"  x="197" y="799" fill="#00000000" /><rect width="20" height= "20"  x="217" y="799" fill="#534135" /><rect width="20" height= "20"  x="237" y="799" fill="#4f3725" /><rect width="20" height= "20"  x="257" y="799" fill="#4f3725" /><rect width="20" height= "20"  x="277" y="799" fill="#61482d" /><rect width="20" height= "20"  x="297" y="799" fill="#795a40" /><rect width="20" height= "20"  x="317" y="799" fill="#7f6e58" /><rect width="20" height= "20"  x="337" y="799" fill="#795a40" /><rect width="20" height= "20"  x="357" y="799" fill="#00000000" /><rect width="20" height= "20"  x="377" y="799" fill="#00000000" /><rect width="20" height= "20"  x="397" y="799" fill="#00000000" /><rect width="20" height= "20"  x="197" y="819" fill="#00000000" /><rect width="20" height= "20"  x="217" y="819" fill="#5c4a41" /><rect width="20" height= "20"  x="237" y="819" fill="#534135" /><rect width="20" height= "20"  x="257" y="819" fill="#4f3725" /><rect width="20" height= "20"  x="277" y="819" fill="#61482d" /><rect width="20" height= "20"  x="297" y="819" fill="#61482d" /><rect width="20" height= "20"  x="317" y="819" fill="#61482d" /><rect width="20" height= "20"  x="337" y="819" fill="#795a40" /><rect width="20" height= "20"  x="357" y="819" fill="#795a40" /><rect width="20" height= "20"  x="377" y="819" fill="#715031" /><rect width="20" height= "20"  x="397" y="819" fill="#61482d" /><rect width="20" height= "20"  x="197" y="839" fill="#00000000" /><rect width="20" height= "20"  x="217" y="839" fill="#65544c" /><rect width="20" height= "20"  x="237" y="839" fill="#5c4a41" /><rect width="20" height= "20"  x="257" y="839" fill="#534135" /><rect width="20" height= "20"  x="277" y="839" fill="#715031" /><rect width="20" height= "20"  x="297" y="839" fill="#61482d" /><rect width="20" height= "20"  x="317" y="839" fill="#61482d" /><rect width="20" height= "20"  x="337" y="839" fill="#715031" /><rect width="20" height= "20"  x="357" y="839" fill="#715031" /><rect width="20" height= "20"  x="377" y="839" fill="#61482d" /><rect width="20" height= "20"  x="397" y="839" fill="#715031" /><rect width="20" height= "20"  x="197" y="859" fill="#00000000" /><rect width="20" height= "20"  x="217" y="859" fill="#65544c" /><rect width="20" height= "20"  x="237" y="859" fill="#65544c" /><rect width="20" height= "20"  x="257" y="859" fill="#5c4a41" /><rect width="20" height= "20"  x="277" y="859" fill="#65544c" /><rect width="20" height= "20"  x="297" y="859" fill="#795a40" /><rect width="20" height= "20"  x="317" y="859" fill="#715031" /><rect width="20" height= "20"  x="337" y="859" fill="#61482d" /><rect width="20" height= "20"  x="357" y="859" fill="#61482d" /><rect width="20" height= "20"  x="377" y="859" fill="#61482d" /><rect width="20" height= "20"  x="397" y="859" fill="#61482d" /><rect width="20" height= "20"  x="197" y="879" fill="#00000000" /><rect width="20" height= "20"  x="217" y="879" fill="#65544c" /><rect width="20" height= "20"  x="237" y="879" fill="#65544c" /><rect width="20" height= "20"  x="257" y="879" fill="#65544c" /><rect width="20" height= "20"  x="277" y="879" fill="#705e4f" /><rect width="20" height= "20"  x="297" y="879" fill="#705e4f" /><rect width="20" height= "20"  x="317" y="879" fill="#795a40" /><rect width="20" height= "20"  x="337" y="879" fill="#61482d" /><rect width="20" height= "20"  x="357" y="879" fill="#61482d" /><rect width="20" height= "20"  x="377" y="879" fill="#61482d" /><rect width="20" height= "20"  x="397" y="879" fill="#61482d" /><rect width="20" height= "20"  x="197" y="899" fill="#00000000" /><rect width="20" height= "20"  x="217" y="899" fill="#00000000" /><rect width="20" height= "20"  x="237" y="899" fill="#705e4f" /><rect width="20" height= "20"  x="257" y="899" fill="#705e4f" /><rect width="20" height= "20"  x="277" y="899" fill="#705e4f" /><rect width="20" height= "20"  x="297" y="899" fill="#7f6e58" /><rect width="20" height= "20"  x="317" y="899" fill="#7f6e58" /><rect width="20" height= "20"  x="337" y="899" fill="#705e4f" /><rect width="20" height= "20"  x="357" y="899" fill="#705e4f" /><rect width="20" height= "20"  x="377" y="899" fill="#7d6350" /><rect width="20" height= "20"  x="397" y="899" fill="#00000000" /><rect width="20" height= "20"  x="197" y="919" fill="#00000000" /><rect width="20" height= "20"  x="217" y="919" fill="#00000000" /><rect width="20" height= "20"  x="237" y="919" fill="#705e4f" /><rect width="20" height= "20"  x="257" y="919" fill="#705e4f" /><rect width="20" height= "20"  x="277" y="919" fill="#7f6e58" /><rect width="20" height= "20"  x="297" y="919" fill="#7f6e58" /><rect width="20" height= "20"  x="317" y="919" fill="#7f6e58" /><rect width="20" height= "20"  x="337" y="919" fill="#7f6e58" /><rect width="20" height= "20"  x="357" y="919" fill="#7f6e58" /><rect width="20" height= "20"  x="377" y="919" fill="#7f6e58" /><rect width="20" height= "20"  x="397" y="919" fill="#00000000" /><rect width="20" height= "20"  x="197" y="939" fill="#00000000" /><rect width="20" height= "20"  x="217" y="939" fill="#00000000" /><rect width="20" height= "20"  x="237" y="939" fill="#00000000" /><rect width="20" height= "20"  x="257" y="939" fill="#7f6e58" /><rect width="20" height= "20"  x="277" y="939" fill="#7d6350" /><rect width="20" height= "20"  x="297" y="939" fill="#7f6e58" /><rect width="20" height= "20"  x="317" y="939" fill="#7f6e58" /><rect width="20" height= "20"  x="337" y="939" fill="#7f6e58" /><rect width="20" height= "20"  x="357" y="939" fill="#7f6e58" /><rect width="20" height= "20"  x="377" y="939" fill="#7f6e58" /><rect width="20" height= "20"  x="397" y="939" fill="#00000000" /><rect width="20" height= "20"  x="197" y="959" fill="#00000000" /><rect width="20" height= "20"  x="217" y="959" fill="#00000000" /><rect width="20" height= "20"  x="237" y="959" fill="#00000000" /><rect width="20" height= "20"  x="257" y="959" fill="#705e4f" /><rect width="20" height= "20"  x="277" y="959" fill="#705e4f" /><rect width="20" height= "20"  x="297" y="959" fill="#7f6e58" /><rect width="20" height= "20"  x="317" y="959" fill="#7f6e58" /><rect width="20" height= "20"  x="337" y="959" fill="#7f6e58" /><rect width="20" height= "20"  x="357" y="959" fill="#7f6e58" /><rect width="20" height= "20"  x="377" y="959" fill="#00000000" /><rect width="20" height= "20"  x="397" y="959" fill="#00000000" /><rect width="20" height= "20"  x="197" y="979" fill="#00000000" /><rect width="20" height= "20"  x="217" y="979" fill="#00000000" /><rect width="20" height= "20"  x="237" y="979" fill="#00000000" /><rect width="20" height= "20"  x="257" y="979" fill="#00000000" /><rect width="20" height= "20"  x="277" y="979" fill="#7f6e58" /><rect width="20" height= "20"  x="297" y="979" fill="#7f6e58" /><rect width="20" height= "20"  x="317" y="979" fill="#7f6e58" /><rect width="20" height= "20"  x="337" y="979" fill="#7f6e58" /><rect width="20" height= "20"  x="357" y="979" fill="#7f6e58" /><rect width="20" height= "20"  x="377" y="979" fill="#00000000" /><rect width="20" height= "20"  x="397" y="979" fill="#00000000" /><rect width="20" height= "20"  x="197" y="999" fill="#00000000" /><rect width="20" height= "20"  x="217" y="999" fill="#00000000" /><rect width="20" height= "20"  x="237" y="999" fill="#00000000" /><rect width="20" height= "20"  x="257" y="999" fill="#00000000" /><rect width="20" height= "20"  x="277" y="999" fill="#705e4f" /><rect width="20" height= "20"  x="297" y="999" fill="#705e4f" /><rect width="20" height= "20"  x="317" y="999" fill="#7f6e58" /><rect width="20" height= "20"  x="337" y="999" fill="#7f6e58" /><rect width="20" height= "20"  x="357" y="999" fill="#00000000" /><rect width="20" height= "20"  x="377" y="999" fill="#00000000" /><rect width="20" height= "20"  x="397" y="999" fill="#00000000" /><rect width="20" height= "20"  x="197" y="1019" fill="#00000000" /><rect width="20" height= "20"  x="217" y="1019" fill="#00000000" /><rect width="20" height= "20"  x="237" y="1019" fill="#00000000" /><rect width="20" height= "20"  x="257" y="1019" fill="#00000000" /><rect width="20" height= "20"  x="277" y="1019" fill="#00000000" /><rect width="20" height= "20"  x="297" y="1019" fill="#65544c" /><rect width="20" height= "20"  x="317" y="1019" fill="#705e4f" /><rect width="20" height= "20"  x="337" y="1019" fill="#795a40" /><rect width="20" height= "20"  x="357" y="1019" fill="#00000000" /><rect width="20" height= "20"  x="377" y="1019" fill="#00000000" /><rect width="20" height= "20"  x="397" y="1019" fill="#00000000" /><rect width="20" height= "20"  x="197" y="1039" fill="#00000000" /><rect width="20" height= "20"  x="217" y="1039" fill="#00000000" /><rect width="20" height= "20"  x="237" y="1039" fill="#00000000" /><rect width="20" height= "20"  x="257" y="1039" fill="#00000000" /><rect width="20" height= "20"  x="277" y="1039" fill="#00000000" /><rect width="20" height= "20"  x="297" y="1039" fill="#65544c" /><rect width="20" height= "20"  x="317" y="1039" fill="#65544c" /><rect width="20" height= "20"  x="337" y="1039" fill="#00000000" /><rect width="20" height= "20"  x="357" y="1039" fill="#00000000" /><rect width="20" height= "20"  x="377" y="1039" fill="#00000000" /><rect width="20" height= "20"  x="397" y="1039" fill="#00000000" /></svg>