<svg width="780" height="1040" viewbox ="0,0,780,1040" xmlns="http://www.w3.org/2000/svg" shape-rendering="crispEdges">
<rect width = "780" height = "1040" fill = "#000000"/><rect width="20" height= "20" x="200" y="700" fill="#00000000"/>
<rect width="20" height= "20" x="220" y="700" fill="#ad7628"/>
<rect width="160" height= "20" x="240" y="700" fill="#00000000"/>


<rect width="20" height= "20" x="200" y="720" fill="#2c0c01"/>
<rect width="20" height= "20" x="220" y="720" fill="#7b4d17"/>
<rect width="20" height= "20" x="240" y="720" fill="#c1842e"/>
<rect width="140" height= "20" x="260" y="720" fill="#00000000"/>


<rect width="20" height= "20" x="200" y="740" fill="#401b07"/>
<rect width="20" height= "20" x="220" y="740" fill="#4c260a"/>
<rect width="40" height= "20" x="240" y="740" fill="#c1842e"/>
<rect width="120" height= "20" x="280" y="740" fill="#00000000"/>


<rect width="20" height= "20" x="200" y="760" fill="#401b07"/>
<rect width="20" height= "20" x="220" y="760" fill="#4c260a"/>
<rect width="20" height= "20" x="240" y="760" fill="#8d5a1d"/>
<rect width="40" height= "20" x="260" y="760" fill="#ad7628"/>
<rect width="100" height= "20" x="300" y="760" fill="#00000000"/>


<rect width="60" height= "20" x="200" y="780" fill="#4c260a"/>
<rect width="20" height= "20" x="260" y="780" fill="#7b4d17"/>
<rect width="40" height= "20" x="280" y="780" fill="#a16822"/>
<rect width="80" height= "20" x="320" y="780" fill="#00000000"/>


<rect width="20" height= "20" x="200" y="800" fill="#502d0e"/>
<rect width="40" height= "20" x="220" y="800" fill="#4c260a"/>
<rect width="20" height= "20" x="260" y="800" fill="#5e320c"/>
<rect width="20" height= "20" x="280" y="800" fill="#753f10"/>
<rect width="20" height= "20" x="300" y="800" fill="#7b4d17"/>
<rect width="20" height= "20" x="320" y="800" fill="#753f10"/>
<rect width="60" height= "20" x="340" y="800" fill="#00000000"/>


<rect width="20" height= "20" x="200" y="820" fill="#593311"/>
<rect width="20" height= "20" x="220" y="820" fill="#502d0e"/>
<rect width="20" height= "20" x="240" y="820" fill="#4c260a"/>
<rect width="60" height= "20" x="260" y="820" fill="#5e320c"/>
<rect width="40" height= "20" x="320" y="820" fill="#753f10"/>
<rect width="20" height= "20" x="360" y="820" fill="#6d380d"/>
<rect width="20" height= "20" x="380" y="820" fill="#5e320c"/>


<rect width="20" height= "20" x="200" y="840" fill="#623a14"/>
<rect width="20" height= "20" x="220" y="840" fill="#593311"/>
<rect width="20" height= "20" x="240" y="840" fill="#502d0e"/>
<rect width="20" height= "20" x="260" y="840" fill="#6d380d"/>
<rect width="40" height= "20" x="280" y="840" fill="#5e320c"/>
<rect width="40" height= "20" x="320" y="840" fill="#6d380d"/>
<rect width="20" height= "20" x="360" y="840" fill="#5e320c"/>
<rect width="20" height= "20" x="380" y="840" fill="#6d380d"/>


<rect width="40" height= "20" x="200" y="860" fill="#623a14"/>
<rect width="20" height= "20" x="240" y="860" fill="#593311"/>
<rect width="20" height= "20" x="260" y="860" fill="#623a14"/>
<rect width="20" height= "20" x="280" y="860" fill="#753f10"/>
<rect width="20" height= "20" x="300" y="860" fill="#6d380d"/>
<rect width="80" height= "20" x="320" y="860" fill="#5e320c"/>


<rect width="60" height= "20" x="200" y="880" fill="#623a14"/>
<rect width="40" height= "20" x="260" y="880" fill="#6c4114"/>
<rect width="20" height= "20" x="300" y="880" fill="#753f10"/>
<rect width="80" height= "20" x="320" y="880" fill="#5e320c"/>


<rect width="20" height= "20" x="200" y="900" fill="#00000000"/>
<rect width="60" height= "20" x="220" y="900" fill="#6c4114"/>
<rect width="40" height= "20" x="280" y="900" fill="#7b4d17"/>
<rect width="40" height= "20" x="320" y="900" fill="#6c4114"/>
<rect width="20" height= "20" x="360" y="900" fill="#794515"/>
<rect width="20" height= "20" x="380" y="900" fill="#00000000"/>


<rect width="20" height= "20" x="200" y="920" fill="#00000000"/>
<rect width="40" height= "20" x="220" y="920" fill="#6c4114"/>
<rect width="120" height= "20" x="260" y="920" fill="#7b4d17"/>
<rect width="20" height= "20" x="380" y="920" fill="#00000000"/>


<rect width="40" height= "20" x="200" y="940" fill="#00000000"/>
<rect width="20" height= "20" x="240" y="940" fill="#7b4d17"/>
<rect width="20" height= "20" x="260" y="940" fill="#794515"/>
<rect width="100" height= "20" x="280" y="940" fill="#7b4d17"/>
<rect width="20" height= "20" x="380" y="940" fill="#00000000"/>


<rect width="40" height= "20" x="200" y="960" fill="#00000000"/>
<rect width="40" height= "20" x="240" y="960" fill="#6c4114"/>
<rect width="80" height= "20" x="280" y="960" fill="#7b4d17"/>
<rect width="40" height= "20" x="360" y="960" fill="#00000000"/>


<rect width="60" height= "20" x="200" y="980" fill="#00000000"/>
<rect width="100" height= "20" x="260" y="980" fill="#7b4d17"/>
<rect width="40" height= "20" x="360" y="980" fill="#00000000"/>


<rect width="60" height= "20" x="200" y="1000" fill="#00000000"/>
<rect width="40" height= "20" x="260" y="1000" fill="#6c4114"/>
<rect width="40" height= "20" x="300" y="1000" fill="#7b4d17"/>
<rect width="60" height= "20" x="340" y="1000" fill="#00000000"/>


<rect width="80" height= "20" x="200" y="1020" fill="#00000000"/>
<rect width="20" height= "20" x="280" y="1020" fill="#623a14"/>
<rect width="20" height= "20" x="300" y="1020" fill="#6c4114"/>
<rect width="20" height= "20" x="320" y="1020" fill="#753f10"/>
<rect width="60" height= "20" x="340" y="1020" fill="#00000000"/>


<rect width="80" height= "20" x="200" y="1040" fill="#00000000"/>
<rect width="40" height= "20" x="280" y="1040" fill="#623a14"/>
</svg>