<svg width="780" height="1300" viewbox ="0,0,780,1000" xmlns="http://www.w3.org/2000/svg" shape-rendering="crispEdges">
<rect width="20" height= "20" x="200" y="700" fill="#00000000"/>
<rect width="20" height= "20" x="220" y="700" fill="#efd2a5"/>
<rect width="160" height= "20" x="240" y="700" fill="#00000000"/>
<rect width="20" height= "20" x="400" y="700" fill="#3e1504"/>


<rect width="20" height= "20" x="200" y="720" fill="#aa895e"/>
<rect width="20" height= "20" x="220" y="720" fill="#ffecbe"/>
<rect width="140" height= "20" x="240" y="720" fill="#00000000"/>
<rect width="20" height= "20" x="380" y="720" fill="#efd2a5"/>


<rect width="100" height= "20" x="200" y="740" fill="#efd2a5"/>
<rect width="120" height= "20" x="300" y="740" fill="#3e1504"/>


<rect width="80" height= "20" x="200" y="760" fill="#6a4427"/>
<rect width="0" height= "20" x="280" y="760" fill="#efd2a5"/>
<rect width="100" height= "20" x="280" y="760" fill="#efd2a5"/>


<rect width="120" height= "20" x="200" y="780" fill="#efd2a5"/>


<rect width="140" height= "20" x="200" y="800" fill="#3e1504"/>
<rect width="20" height= "20" x="340" y="800" fill="#58311d"/>
<rect width="0" height= "20" x="360" y="800" fill="#aa895e"/>


<rect width="120" height= "20" x="200" y="820" fill="#efd2a5"/>
<rect width="60" height= "20" x="320" y="820" fill="#3e1504"/>


<rect width="160" height= "20" x="200" y="840" fill="#ffecbe"/>
<rect width="0" height= "20" x="360" y="840" fill="#efd2a5"/>


<rect width="180" height= "20" x="200" y="860" fill="#3e1504"/>


<rect width="120" height= "20" x="200" y="880" fill="#efd2a5"/>


<rect width="200" height= "20" x="200" y="900" fill="#efd2a5"/>


<rect width="220" height= "20" x="200" y="920" fill="#efd2a5"/>


<rect width="60" height= "20" x="200" y="940" fill="#efd2a5"/>


<rect width="220" height= "20" x="200" y="960" fill="#aa895e"/>
<rect width="0" height= "20" x="420" y="960" fill="#efd2a5"/>


<rect width="240" height= "20" x="200" y="980" fill="#efd2a5"/>


<rect width="180" height= "20" x="200" y="1000" fill="#efd2a5"/>


<rect width="120" height= "20" x="200" y="1020" fill="#aa895e"/>


<rect width="200" height= "20" x="200" y="1040" fill="#3e1504"/>


<rect width="220" height= "20" x="200" y="1060" fill="#efd2a5"/>


<rect width="260" height= "20" x="200" y="1080" fill="#efd2a5"/>


<rect width="200" height= "20" x="200" y="1100" fill="#efd2a5"/>


<rect width="280" height= "20" x="200" y="1120" fill="#efd2a5"/>


<rect width="240" height= "20" x="200" y="1140" fill="#efd2a5"/>


<rect width="180" height= "20" x="200" y="1160" fill="#efd2a5"/>


<rect width="260" height= "20" x="200" y="1180" fill="#3e1504"/>


<rect width="200" height= "20" x="200" y="1200" fill="#3e1504"/>


<rect width="260" height= "20" x="200" y="1220" fill="#efd2a5"/>


<rect width="200" height= "20" x="200" y="1240" fill="#efd2a5"/>


<rect width="260" height= "20" x="200" y="1260" fill="#3e1504"/>


<rect width="280" height= "20" x="200" y="1280" fill="#efd2a5"/>


<rect width="240" height= "20" x="200" y="1300" fill="#efd2a5"/>


<rect width="280" height= "20" x="200" y="1320" fill="#efd2a5"/>


<rect width="220" height= "20" x="200" y="1340" fill="#efd2a5"/>


<rect width="260" height= "20" x="200" y="1360" fill="#ffecbe"/>


<rect width="200" height= "20" x="200" y="1380" fill="#aa895e"/>


<rect width="280" height= "20" x="200" y="1400" fill="#3e1504"/>


<rect width="300" height= "20" x="200" y="1420" fill="#efd2a5"/>


<rect width="220" height= "20" x="200" y="1440" fill="#ffecbe"/>


<rect width="200" height= "20" x="200" y="1460" fill="#efd2a5"/>
<rect width="0" height= "20" x="400" y="1460" fill="#aa895e"/>


<rect width="300" height= "20" x="200" y="1480" fill="#3e1504"/>


<rect width="60" height= "20" x="200" y="1500" fill="#3e1504"/>


<rect width="300" height= "20" x="200" y="1520" fill="#efd2a5"/>


<rect width="320" height= "20" x="200" y="1540" fill="#efd2a5"/>


<rect width="0" height= "20" x="200" y="1560" fill="#efd2a5"/>
<rect width="0" height= "20" x="200" y="1560" fill="#3e1504"/>


<rect width="300" height= "20" x="200" y="1580" fill="#6a4427"/>


<rect width="60" height= "20" x="200" y="1600" fill="#efd2a5"/>
<rect width="0" height= "20" x="260" y="1600" fill="#3e1504"/>
<rect width="0" height= "20" x="260" y="1600" fill="#efd2a5"/>
<rect width="60" height= "20" x="260" y="1600" fill="#efd2a5"/>


<rect width="320" height= "20" x="200" y="1620" fill="#58311d"/>


<rect width="60" height= "20" x="200" y="1640" fill="#efd2a5"/>
<rect width="0" height= "20" x="260" y="1640" fill="#3e1504"/>
<rect width="0" height= "20" x="260" y="1640" fill="#3e1504"/>


<rect width="300" height= "20" x="200" y="1660" fill="#ffecbe"/>


<rect width="60" height= "20" x="200" y="1680" fill="#3e1504"/>
<rect width="0" height= "20" x="260" y="1680" fill="#aa895e"/>
<rect width="0" height= "20" x="260" y="1680" fill="#58311d"/>
<rect width="60" height= "20" x="260" y="1680" fill="#3e1504"/>
<rect width="0" height= "20" x="320" y="1680" fill="#aa895e"/>
<rect width="0" height= "20" x="320" y="1680" fill="#3e1504"/>


<rect width="300" height= "20" x="200" y="1700" fill="#3e1504"/>


<rect width="60" height= "20" x="200" y="1720" fill="#aa895e"/>
<rect width="0" height= "20" x="260" y="1720" fill="#ffecbe"/>
<rect width="0" height= "20" x="260" y="1720" fill="#efd2a5"/>


<rect width="280" height= "20" x="200" y="1740" fill="#efd2a5"/>


<rect width="300" height= "20" x="200" y="1760" fill="#efd2a5"/>


<rect width="220" height= "20" x="200" y="1780" fill="#aa895e"/>
<rect width="0" height= "20" x="420" y="1780" fill="#ffecbe"/>
<rect width="0" height= "20" x="420" y="1780" fill="#3e1504"/>


<rect width="280" height= "20" x="200" y="1800" fill="#ffecbe"/>
</svg>