<svg width="780" height="1040" viewbox ="0,0,780,1040" xmlns="http://www.w3.org/2000/svg" shape-rendering="crispEdges">
<rect width = "780" height = "1040" fill = "#000000"/><rect width="200" height= "20" x="140" y="180" fill="#00000000"/>
<rect width="20" height= "20" x="340" y="180" fill="#37006c"/>
<rect width="20" height= "20" x="360" y="180" fill="#440079"/>
<rect width="20" height= "20" x="380" y="180" fill="#5a009c"/>
<rect width="20" height= "20" x="400" y="180" fill="#6200a9"/>
<rect width="20" height= "20" x="420" y="180" fill="#48008c"/>
<rect width="20" height= "20" x="440" y="180" fill="#00000000"/>
<rect width="20" height= "20" x="460" y="180" fill="#9a00ff"/>
<rect width="140" height= "20" x="480" y="180" fill="#00000000"/>


<rect width="140" height= "20" x="140" y="200" fill="#00000000"/>
<rect width="20" height= "20" x="280" y="200" fill="#37006c"/>
<rect width="20" height= "20" x="300" y="200" fill="#2f0058"/>
<rect width="20" height= "20" x="320" y="200" fill="#37006c"/>
<rect width="20" height= "20" x="340" y="200" fill="#2f0058"/>
<rect width="20" height= "20" x="360" y="200" fill="#170034"/>
<rect width="20" height= "20" x="380" y="200" fill="#2f0058"/>
<rect width="20" height= "20" x="400" y="200" fill="#170034"/>
<rect width="20" height= "20" x="420" y="200" fill="#000018"/>
<rect width="40" height= "20" x="440" y="200" fill="#2f0058"/>
<rect width="20" height= "20" x="480" y="200" fill="#7c00e4"/>
<rect width="120" height= "20" x="500" y="200" fill="#00000000"/>


<rect width="120" height= "20" x="140" y="220" fill="#00000000"/>
<rect width="20" height= "20" x="260" y="220" fill="#48008c"/>
<rect width="20" height= "20" x="280" y="220" fill="#440079"/>
<rect width="20" height= "20" x="300" y="220" fill="#000018"/>
<rect width="20" height= "20" x="320" y="220" fill="#170034"/>
<rect width="40" height= "20" x="340" y="220" fill="#23004a"/>
<rect width="20" height= "20" x="380" y="220" fill="#170034"/>
<rect width="20" height= "20" x="400" y="220" fill="#23004a"/>
<rect width="20" height= "20" x="420" y="220" fill="#2f0058"/>
<rect width="20" height= "20" x="440" y="220" fill="#000018"/>
<rect width="20" height= "20" x="460" y="220" fill="#2f0058"/>
<rect width="20" height= "20" x="480" y="220" fill="#000018"/>
<rect width="20" height= "20" x="500" y="220" fill="#37006c"/>
<rect width="100" height= "20" x="520" y="220" fill="#00000000"/>


<rect width="80" height= "20" x="140" y="240" fill="#00000000"/>
<rect width="20" height= "20" x="220" y="240" fill="#37006c"/>
<rect width="20" height= "20" x="240" y="240" fill="#0c002c"/>
<rect width="20" height= "20" x="260" y="240" fill="#440079"/>
<rect width="20" height= "20" x="280" y="240" fill="#170034"/>
<rect width="20" height= "20" x="300" y="240" fill="#23004a"/>
<rect width="20" height= "20" x="320" y="240" fill="#170034"/>
<rect width="40" height= "20" x="340" y="240" fill="#23004a"/>
<rect width="20" height= "20" x="380" y="240" fill="#000018"/>
<rect width="60" height= "20" x="400" y="240" fill="#23004a"/>
<rect width="20" height= "20" x="460" y="240" fill="#0c002c"/>
<rect width="20" height= "20" x="480" y="240" fill="#2f0058"/>
<rect width="20" height= "20" x="500" y="240" fill="#0c002c"/>
<rect width="20" height= "20" x="520" y="240" fill="#37006c"/>
<rect width="80" height= "20" x="540" y="240" fill="#00000000"/>


<rect width="80" height= "20" x="140" y="260" fill="#00000000"/>
<rect width="20" height= "20" x="220" y="260" fill="#170034"/>
<rect width="20" height= "20" x="240" y="260" fill="#23004a"/>
<rect width="20" height= "20" x="260" y="260" fill="#170034"/>
<rect width="60" height= "20" x="280" y="260" fill="#2f0058"/>
<rect width="20" height= "20" x="340" y="260" fill="#23004a"/>
<rect width="20" height= "20" x="360" y="260" fill="#170034"/>
<rect width="20" height= "20" x="380" y="260" fill="#8c00f3"/>
<rect width="20" height= "20" x="400" y="260" fill="#0c002c"/>
<rect width="40" height= "20" x="420" y="260" fill="#170034"/>
<rect width="20" height= "20" x="460" y="260" fill="#0c002c"/>
<rect width="40" height= "20" x="480" y="260" fill="#170034"/>
<rect width="40" height= "20" x="520" y="260" fill="#23004a"/>
<rect width="60" height= "20" x="560" y="260" fill="#00000000"/>


<rect width="60" height= "20" x="140" y="280" fill="#00000000"/>
<rect width="20" height= "20" x="200" y="280" fill="#170034"/>
<rect width="20" height= "20" x="220" y="280" fill="#23004a"/>
<rect width="20" height= "20" x="240" y="280" fill="#2f0058"/>
<rect width="20" height= "20" x="260" y="280" fill="#23004a"/>
<rect width="20" height= "20" x="280" y="280" fill="#bc00ff"/>
<rect width="20" height= "20" x="300" y="280" fill="#37006c"/>
<rect width="40" height= "20" x="320" y="280" fill="#2f0058"/>
<rect width="20" height= "20" x="360" y="280" fill="#23004a"/>
<rect width="20" height= "20" x="380" y="280" fill="#230059"/>
<rect width="40" height= "20" x="400" y="280" fill="#23004a"/>
<rect width="20" height= "20" x="440" y="280" fill="#2f0058"/>
<rect width="20" height= "20" x="460" y="280" fill="#000018"/>
<rect width="20" height= "20" x="480" y="280" fill="#23004a"/>
<rect width="20" height= "20" x="500" y="280" fill="#2f0058"/>
<rect width="40" height= "20" x="520" y="280" fill="#000018"/>
<rect width="20" height= "20" x="560" y="280" fill="#6200a9"/>
<rect width="40" height= "20" x="580" y="280" fill="#00000000"/>


<rect width="60" height= "20" x="140" y="300" fill="#00000000"/>
<rect width="20" height= "20" x="200" y="300" fill="#5a009c"/>
<rect width="20" height= "20" x="220" y="300" fill="#2f0058"/>
<rect width="40" height= "20" x="240" y="300" fill="#23004a"/>
<rect width="20" height= "20" x="280" y="300" fill="#2f0058"/>
<rect width="20" height= "20" x="300" y="300" fill="#5f00da"/>
<rect width="20" height= "20" x="320" y="300" fill="#000018"/>
<rect width="20" height= "20" x="340" y="300" fill="#170034"/>
<rect width="20" height= "20" x="360" y="300" fill="#000018"/>
<rect width="20" height= "20" x="380" y="300" fill="#170034"/>
<rect width="20" height= "20" x="400" y="300" fill="#2f0058"/>
<rect width="20" height= "20" x="420" y="300" fill="#000018"/>
<rect width="20" height= "20" x="440" y="300" fill="#170034"/>
<rect width="20" height= "20" x="460" y="300" fill="#2f0058"/>
<rect width="60" height= "20" x="480" y="300" fill="#000018"/>
<rect width="20" height= "20" x="540" y="300" fill="#170034"/>
<rect width="20" height= "20" x="560" y="300" fill="#48008c"/>
<rect width="40" height= "20" x="580" y="300" fill="#00000000"/>


<rect width="60" height= "20" x="140" y="320" fill="#00000000"/>
<rect width="20" height= "20" x="200" y="320" fill="#48008c"/>
<rect width="20" height= "20" x="220" y="320" fill="#0c002c"/>
<rect width="20" height= "20" x="240" y="320" fill="#23004a"/>
<rect width="20" height= "20" x="260" y="320" fill="#2f0058"/>
<rect width="20" height= "20" x="280" y="320" fill="#23004a"/>
<rect width="40" height= "20" x="300" y="320" fill="#2f0058"/>
<rect width="60" height= "20" x="340" y="320" fill="#23004a"/>
<rect width="20" height= "20" x="400" y="320" fill="#000018"/>
<rect width="20" height= "20" x="420" y="320" fill="#7000fa"/>
<rect width="40" height= "20" x="440" y="320" fill="#170034"/>
<rect width="20" height= "20" x="480" y="320" fill="#000018"/>
<rect width="20" height= "20" x="500" y="320" fill="#23004a"/>
<rect width="20" height= "20" x="520" y="320" fill="#170034"/>
<rect width="20" height= "20" x="540" y="320" fill="#23004a"/>
<rect width="20" height= "20" x="560" y="320" fill="#0c002c"/>
<rect width="20" height= "20" x="580" y="320" fill="#230059"/>
<rect width="20" height= "20" x="600" y="320" fill="#00000000"/>


<rect width="40" height= "20" x="140" y="340" fill="#00000000"/>
<rect width="20" height= "20" x="180" y="340" fill="#2f0058"/>
<rect width="20" height= "20" x="200" y="340" fill="#37006c"/>
<rect width="20" height= "20" x="220" y="340" fill="#23004a"/>
<rect width="40" height= "20" x="240" y="340" fill="#170034"/>
<rect width="20" height= "20" x="280" y="340" fill="#0c002c"/>
<rect width="60" height= "20" x="300" y="340" fill="#23004a"/>
<rect width="40" height= "20" x="360" y="340" fill="#000018"/>
<rect width="20" height= "20" x="400" y="340" fill="#23004a"/>
<rect width="40" height= "20" x="420" y="340" fill="#000018"/>
<rect width="20" height= "20" x="460" y="340" fill="#23004a"/>
<rect width="20" height= "20" x="480" y="340" fill="#2f0058"/>
<rect width="20" height= "20" x="500" y="340" fill="#170034"/>
<rect width="20" height= "20" x="520" y="340" fill="#000018"/>
<rect width="40" height= "20" x="540" y="340" fill="#170034"/>
<rect width="20" height= "20" x="580" y="340" fill="#23004a"/>
<rect width="20" height= "20" x="600" y="340" fill="#00000000"/>


<rect width="40" height= "20" x="140" y="360" fill="#00000000"/>
<rect width="20" height= "20" x="180" y="360" fill="#48008c"/>
<rect width="20" height= "20" x="200" y="360" fill="#9a00ff"/>
<rect width="40" height= "20" x="220" y="360" fill="#23004a"/>
<rect width="20" height= "20" x="260" y="360" fill="#0c002c"/>
<rect width="20" height= "20" x="280" y="360" fill="#23004a"/>
<rect width="20" height= "20" x="300" y="360" fill="#000018"/>
<rect width="20" height= "20" x="320" y="360" fill="#170034"/>
<rect width="20" height= "20" x="340" y="360" fill="#37006c"/>
<rect width="20" height= "20" x="360" y="360" fill="#000018"/>
<rect width="20" height= "20" x="380" y="360" fill="#2f0058"/>
<rect width="20" height= "20" x="400" y="360" fill="#170034"/>
<rect width="60" height= "20" x="420" y="360" fill="#23004a"/>
<rect width="20" height= "20" x="480" y="360" fill="#0d0043"/>
<rect width="20" height= "20" x="500" y="360" fill="#190044"/>
<rect width="20" height= "20" x="520" y="360" fill="#170034"/>
<rect width="40" height= "20" x="540" y="360" fill="#000018"/>
<rect width="20" height= "20" x="580" y="360" fill="#2f0058"/>
<rect width="20" height= "20" x="600" y="360" fill="#00000000"/>


<rect width="20" height= "20" x="140" y="380" fill="#00000000"/>
<rect width="20" height= "20" x="160" y="380" fill="#5700ae"/>
<rect width="40" height= "20" x="180" y="380" fill="#2f0058"/>
<rect width="40" height= "20" x="220" y="380" fill="#170034"/>
<rect width="20" height= "20" x="260" y="380" fill="#0c002c"/>
<rect width="20" height= "20" x="280" y="380" fill="#170034"/>
<rect width="20" height= "20" x="300" y="380" fill="#23004a"/>
<rect width="40" height= "20" x="320" y="380" fill="#170034"/>
<rect width="40" height= "20" x="360" y="380" fill="#2f0058"/>
<rect width="20" height= "20" x="400" y="380" fill="#000018"/>
<rect width="20" height= "20" x="420" y="380" fill="#7600d0"/>
<rect width="40" height= "20" x="440" y="380" fill="#000018"/>
<rect width="20" height= "20" x="480" y="380" fill="#2f0058"/>
<rect width="40" height= "20" x="500" y="380" fill="#000018"/>
<rect width="20" height= "20" x="540" y="380" fill="#0c002c"/>
<rect width="20" height= "20" x="560" y="380" fill="#440079"/>
<rect width="20" height= "20" x="580" y="380" fill="#170034"/>
<rect width="20" height= "20" x="600" y="380" fill="#2f0058"/>


<rect width="20" height= "20" x="140" y="400" fill="#00000000"/>
<rect width="20" height= "20" x="160" y="400" fill="#48008c"/>
<rect width="20" height= "20" x="180" y="400" fill="#23004a"/>
<rect width="20" height= "20" x="200" y="400" fill="#b200ff"/>
<rect width="20" height= "20" x="220" y="400" fill="#23004a"/>
<rect width="20" height= "20" x="240" y="400" fill="#0b0018"/>
<rect width="20" height= "20" x="260" y="400" fill="#23004a"/>
<rect width="20" height= "20" x="280" y="400" fill="#37006c"/>
<rect width="20" height= "20" x="300" y="400" fill="#000018"/>
<rect width="100" height= "20" x="320" y="400" fill="#23004a"/>
<rect width="60" height= "20" x="420" y="400" fill="#170034"/>
<rect width="40" height= "20" x="480" y="400" fill="#000018"/>
<rect width="20" height= "20" x="520" y="400" fill="#23004a"/>
<rect width="40" height= "20" x="540" y="400" fill="#000018"/>
<rect width="40" height= "20" x="580" y="400" fill="#37006c"/>


<rect width="20" height= "20" x="140" y="420" fill="#00000000"/>
<rect width="20" height= "20" x="160" y="420" fill="#48008c"/>
<rect width="20" height= "20" x="180" y="420" fill="#170034"/>
<rect width="20" height= "20" x="200" y="420" fill="#23004a"/>
<rect width="20" height= "20" x="220" y="420" fill="#000018"/>
<rect width="20" height= "20" x="240" y="420" fill="#2f0058"/>
<rect width="20" height= "20" x="260" y="420" fill="#23004a"/>
<rect width="20" height= "20" x="280" y="420" fill="#000018"/>
<rect width="20" height= "20" x="300" y="420" fill="#440079"/>
<rect width="20" height= "20" x="320" y="420" fill="#23004a"/>
<rect width="20" height= "20" x="340" y="420" fill="#37006c"/>
<rect width="20" height= "20" x="360" y="420" fill="#23004a"/>
<rect width="20" height= "20" x="380" y="420" fill="#2f0058"/>
<rect width="20" height= "20" x="400" y="420" fill="#000018"/>
<rect width="40" height= "20" x="420" y="420" fill="#170034"/>
<rect width="100" height= "20" x="460" y="420" fill="#000018"/>
<rect width="20" height= "20" x="560" y="420" fill="#37006c"/>
<rect width="20" height= "20" x="580" y="420" fill="#170034"/>
<rect width="20" height= "20" x="600" y="420" fill="#23004a"/>


<rect width="20" height= "20" x="140" y="440" fill="#00000000"/>
<rect width="20" height= "20" x="160" y="440" fill="#190044"/>
<rect width="20" height= "20" x="180" y="440" fill="#170034"/>
<rect width="20" height= "20" x="200" y="440" fill="#9b00ff"/>
<rect width="20" height= "20" x="220" y="440" fill="#170034"/>
<rect width="20" height= "20" x="240" y="440" fill="#48008c"/>
<rect width="20" height= "20" x="260" y="440" fill="#2f0058"/>
<rect width="60" height= "20" x="280" y="440" fill="#170034"/>
<rect width="60" height= "20" x="340" y="440" fill="#23004a"/>
<rect width="20" height= "20" x="400" y="440" fill="#170034"/>
<rect width="20" height= "20" x="420" y="440" fill="#0c002c"/>
<rect width="40" height= "20" x="440" y="440" fill="#23004a"/>
<rect width="40" height= "20" x="480" y="440" fill="#000018"/>
<rect width="20" height= "20" x="520" y="440" fill="#170034"/>
<rect width="20" height= "20" x="540" y="440" fill="#000018"/>
<rect width="20" height= "20" x="560" y="440" fill="#170034"/>
<rect width="20" height= "20" x="580" y="440" fill="#2f0058"/>
<rect width="20" height= "20" x="600" y="440" fill="#000018"/>


<rect width="20" height= "20" x="140" y="460" fill="#00000000"/>
<rect width="20" height= "20" x="160" y="460" fill="#440079"/>
<rect width="20" height= "20" x="180" y="460" fill="#37006c"/>
<rect width="20" height= "20" x="200" y="460" fill="#5a009c"/>
<rect width="20" height= "20" x="220" y="460" fill="#37006c"/>
<rect width="20" height= "20" x="240" y="460" fill="#23004a"/>
<rect width="20" height= "20" x="260" y="460" fill="#170034"/>
<rect width="20" height= "20" x="280" y="460" fill="#000018"/>
<rect width="20" height= "20" x="300" y="460" fill="#23004a"/>
<rect width="20" height= "20" x="320" y="460" fill="#0c002c"/>
<rect width="20" height= "20" x="340" y="460" fill="#37006c"/>
<rect width="20" height= "20" x="360" y="460" fill="#000018"/>
<rect width="20" height= "20" x="380" y="460" fill="#440079"/>
<rect width="20" height= "20" x="400" y="460" fill="#000018"/>
<rect width="20" height= "20" x="420" y="460" fill="#be00ff"/>
<rect width="60" height= "20" x="440" y="460" fill="#170034"/>
<rect width="40" height= "20" x="500" y="460" fill="#000018"/>
<rect width="40" height= "20" x="540" y="460" fill="#170034"/>
<rect width="20" height= "20" x="580" y="460" fill="#5a009c"/>
<rect width="20" height= "20" x="600" y="460" fill="#37006c"/>


<rect width="20" height= "20" x="140" y="480" fill="#4b009d"/>
<rect width="40" height= "20" x="160" y="480" fill="#2f0058"/>
<rect width="40" height= "20" x="200" y="480" fill="#23004a"/>
<rect width="20" height= "20" x="240" y="480" fill="#2f0058"/>
<rect width="20" height= "20" x="260" y="480" fill="#170034"/>
<rect width="20" height= "20" x="280" y="480" fill="#23004a"/>
<rect width="20" height= "20" x="300" y="480" fill="#000018"/>
<rect width="20" height= "20" x="320" y="480" fill="#23004a"/>
<rect width="20" height= "20" x="340" y="480" fill="#2f0058"/>
<rect width="20" height= "20" x="360" y="480" fill="#000018"/>
<rect width="20" height= "20" x="380" y="480" fill="#170034"/>
<rect width="60" height= "20" x="400" y="480" fill="#000018"/>
<rect width="20" height= "20" x="460" y="480" fill="#0c002c"/>
<rect width="20" height= "20" x="480" y="480" fill="#000018"/>
<rect width="20" height= "20" x="500" y="480" fill="#170034"/>
<rect width="20" height= "20" x="520" y="480" fill="#000018"/>
<rect width="40" height= "20" x="540" y="480" fill="#170034"/>
<rect width="20" height= "20" x="580" y="480" fill="#0c002c"/>
<rect width="20" height= "20" x="600" y="480" fill="#000018"/>


<rect width="20" height= "20" x="140" y="500" fill="#00000000"/>
<rect width="20" height= "20" x="160" y="500" fill="#37006c"/>
<rect width="20" height= "20" x="180" y="500" fill="#000018"/>
<rect width="20" height= "20" x="200" y="500" fill="#170034"/>
<rect width="20" height= "20" x="220" y="500" fill="#440079"/>
<rect width="60" height= "20" x="240" y="500" fill="#23004a"/>
<rect width="40" height= "20" x="300" y="500" fill="#170034"/>
<rect width="20" height= "20" x="340" y="500" fill="#23004a"/>
<rect width="20" height= "20" x="360" y="500" fill="#0c002c"/>
<rect width="20" height= "20" x="380" y="500" fill="#23004a"/>
<rect width="20" height= "20" x="400" y="500" fill="#000018"/>
<rect width="20" height= "20" x="420" y="500" fill="#190044"/>
<rect width="20" height= "20" x="440" y="500" fill="#170034"/>
<rect width="20" height= "20" x="460" y="500" fill="#000018"/>
<rect width="20" height= "20" x="480" y="500" fill="#6200a9"/>
<rect width="80" height= "20" x="500" y="500" fill="#000018"/>
<rect width="20" height= "20" x="580" y="500" fill="#37006c"/>
<rect width="20" height= "20" x="600" y="500" fill="#440079"/>


<rect width="20" height= "20" x="140" y="520" fill="#48008c"/>
<rect width="20" height= "20" x="160" y="520" fill="#2f0058"/>
<rect width="20" height= "20" x="180" y="520" fill="#be00ff"/>
<rect width="20" height= "20" x="200" y="520" fill="#23004a"/>
<rect width="20" height= "20" x="220" y="520" fill="#0c002c"/>
<rect width="20" height= "20" x="240" y="520" fill="#37006c"/>
<rect width="20" height= "20" x="260" y="520" fill="#2f0058"/>
<rect width="20" height= "20" x="280" y="520" fill="#170034"/>
<rect width="20" height= "20" x="300" y="520" fill="#37006c"/>
<rect width="20" height= "20" x="320" y="520" fill="#000018"/>
<rect width="20" height= "20" x="340" y="520" fill="#37006c"/>
<rect width="20" height= "20" x="360" y="520" fill="#440079"/>
<rect width="20" height= "20" x="380" y="520" fill="#170034"/>
<rect width="60" height= "20" x="400" y="520" fill="#000018"/>
<rect width="20" height= "20" x="460" y="520" fill="#23004a"/>
<rect width="40" height= "20" x="480" y="520" fill="#170034"/>
<rect width="20" height= "20" x="520" y="520" fill="#000018"/>
<rect width="20" height= "20" x="540" y="520" fill="#5a009c"/>
<rect width="40" height= "20" x="560" y="520" fill="#000018"/>
<rect width="20" height= "20" x="600" y="520" fill="#440079"/>


<rect width="20" height= "20" x="140" y="540" fill="#00000000"/>
<rect width="20" height= "20" x="160" y="540" fill="#5700ae"/>
<rect width="20" height= "20" x="180" y="540" fill="#23004a"/>
<rect width="20" height= "20" x="200" y="540" fill="#440079"/>
<rect width="20" height= "20" x="220" y="540" fill="#23004a"/>
<rect width="20" height= "20" x="240" y="540" fill="#0b0018"/>
<rect width="20" height= "20" x="260" y="540" fill="#2f0058"/>
<rect width="20" height= "20" x="280" y="540" fill="#170034"/>
<rect width="40" height= "20" x="300" y="540" fill="#37006c"/>
<rect width="20" height= "20" x="340" y="540" fill="#23004a"/>
<rect width="20" height= "20" x="360" y="540" fill="#000018"/>
<rect width="20" height= "20" x="380" y="540" fill="#23004a"/>
<rect width="20" height= "20" x="400" y="540" fill="#170034"/>
<rect width="20" height= "20" x="420" y="540" fill="#23004a"/>
<rect width="20" height= "20" x="440" y="540" fill="#000018"/>
<rect width="20" height= "20" x="460" y="540" fill="#170034"/>
<rect width="20" height= "20" x="480" y="540" fill="#5a006a"/>
<rect width="20" height= "20" x="500" y="540" fill="#000018"/>
<rect width="20" height= "20" x="520" y="540" fill="#0b0018"/>
<rect width="20" height= "20" x="540" y="540" fill="#000018"/>
<rect width="40" height= "20" x="560" y="540" fill="#0c002c"/>
<rect width="20" height= "20" x="600" y="540" fill="#00000000"/>


<rect width="20" height= "20" x="140" y="560" fill="#37006c"/>
<rect width="20" height= "20" x="160" y="560" fill="#2f0058"/>
<rect width="20" height= "20" x="180" y="560" fill="#5f00da"/>
<rect width="20" height= "20" x="200" y="560" fill="#170034"/>
<rect width="20" height= "20" x="220" y="560" fill="#be00ff"/>
<rect width="20" height= "20" x="240" y="560" fill="#23004a"/>
<rect width="40" height= "20" x="260" y="560" fill="#000018"/>
<rect width="20" height= "20" x="300" y="560" fill="#23004a"/>
<rect width="20" height= "20" x="320" y="560" fill="#170034"/>
<rect width="20" height= "20" x="340" y="560" fill="#0c002c"/>
<rect width="20" height= "20" x="360" y="560" fill="#2f0058"/>
<rect width="20" height= "20" x="380" y="560" fill="#170034"/>
<rect width="20" height= "20" x="400" y="560" fill="#000018"/>
<rect width="20" height= "20" x="420" y="560" fill="#0c002c"/>
<rect width="20" height= "20" x="440" y="560" fill="#000018"/>
<rect width="20" height= "20" x="460" y="560" fill="#23004a"/>
<rect width="20" height= "20" x="480" y="560" fill="#000018"/>
<rect width="20" height= "20" x="500" y="560" fill="#0c002c"/>
<rect width="20" height= "20" x="520" y="560" fill="#000018"/>
<rect width="20" height= "20" x="540" y="560" fill="#48008c"/>
<rect width="20" height= "20" x="560" y="560" fill="#000018"/>
<rect width="20" height= "20" x="580" y="560" fill="#2f0058"/>
<rect width="20" height= "20" x="600" y="560" fill="#00000000"/>


<rect width="20" height= "20" x="140" y="580" fill="#7600d0"/>
<rect width="20" height= "20" x="160" y="580" fill="#440079"/>
<rect width="20" height= "20" x="180" y="580" fill="#170034"/>
<rect width="20" height= "20" x="200" y="580" fill="#440079"/>
<rect width="20" height= "20" x="220" y="580" fill="#170034"/>
<rect width="20" height= "20" x="240" y="580" fill="#7600d0"/>
<rect width="20" height= "20" x="260" y="580" fill="#0c002c"/>
<rect width="40" height= "20" x="280" y="580" fill="#000018"/>
<rect width="20" height= "20" x="320" y="580" fill="#23004a"/>
<rect width="20" height= "20" x="340" y="580" fill="#8700fc"/>
<rect width="20" height= "20" x="360" y="580" fill="#be00ff"/>
<rect width="20" height= "20" x="380" y="580" fill="#9a00ff"/>
<rect width="20" height= "20" x="400" y="580" fill="#37006c"/>
<rect width="20" height= "20" x="420" y="580" fill="#170034"/>
<rect width="60" height= "20" x="440" y="580" fill="#000018"/>
<rect width="20" height= "20" x="500" y="580" fill="#0c002c"/>
<rect width="20" height= "20" x="520" y="580" fill="#000018"/>
<rect width="20" height= "20" x="540" y="580" fill="#170034"/>
<rect width="20" height= "20" x="560" y="580" fill="#6200a9"/>
<rect width="20" height= "20" x="580" y="580" fill="#5a009c"/>
<rect width="20" height= "20" x="600" y="580" fill="#00000000"/>


<rect width="20" height= "20" x="140" y="600" fill="#00000000"/>
<rect width="20" height= "20" x="160" y="600" fill="#2f0058"/>
<rect width="20" height= "20" x="180" y="600" fill="#23004a"/>
<rect width="20" height= "20" x="200" y="600" fill="#2f0058"/>
<rect width="40" height= "20" x="220" y="600" fill="#170034"/>
<rect width="20" height= "20" x="260" y="600" fill="#2f0058"/>
<rect width="20" height= "20" x="280" y="600" fill="#000018"/>
<rect width="20" height= "20" x="300" y="600" fill="#170034"/>
<rect width="20" height= "20" x="320" y="600" fill="#0c002c"/>
<rect width="20" height= "20" x="340" y="600" fill="#000018"/>
<rect width="20" height= "20" x="360" y="600" fill="#37006c"/>
<rect width="20" height= "20" x="380" y="600" fill="#000018"/>
<rect width="20" height= "20" x="400" y="600" fill="#170034"/>
<rect width="20" height= "20" x="420" y="600" fill="#000018"/>
<rect width="20" height= "20" x="440" y="600" fill="#170034"/>
<rect width="20" height= "20" x="460" y="600" fill="#23004a"/>
<rect width="20" height= "20" x="480" y="600" fill="#170034"/>
<rect width="20" height= "20" x="500" y="600" fill="#0c002c"/>
<rect width="20" height= "20" x="520" y="600" fill="#000018"/>
<rect width="20" height= "20" x="540" y="600" fill="#23004a"/>
<rect width="20" height= "20" x="560" y="600" fill="#0c002c"/>
<rect width="20" height= "20" x="580" y="600" fill="#37006c"/>
<rect width="20" height= "20" x="600" y="600" fill="#00000000"/>


<rect width="40" height= "20" x="140" y="620" fill="#00000000"/>
<rect width="60" height= "20" x="180" y="620" fill="#170034"/>
<rect width="20" height= "20" x="240" y="620" fill="#23004a"/>
<rect width="20" height= "20" x="260" y="620" fill="#2a0036"/>
<rect width="20" height= "20" x="280" y="620" fill="#23004a"/>
<rect width="20" height= "20" x="300" y="620" fill="#170034"/>
<rect width="20" height= "20" x="320" y="620" fill="#0c002c"/>
<rect width="20" height= "20" x="340" y="620" fill="#170034"/>
<rect width="20" height= "20" x="360" y="620" fill="#23004a"/>
<rect width="20" height= "20" x="380" y="620" fill="#440079"/>
<rect width="20" height= "20" x="400" y="620" fill="#3e008a"/>
<rect width="20" height= "20" x="420" y="620" fill="#170034"/>
<rect width="20" height= "20" x="440" y="620" fill="#440079"/>
<rect width="20" height= "20" x="460" y="620" fill="#170034"/>
<rect width="40" height= "20" x="480" y="620" fill="#000018"/>
<rect width="20" height= "20" x="520" y="620" fill="#000009"/>
<rect width="20" height= "20" x="540" y="620" fill="#000018"/>
<rect width="20" height= "20" x="560" y="620" fill="#0c002c"/>
<rect width="20" height= "20" x="580" y="620" fill="#6200a9"/>
<rect width="20" height= "20" x="600" y="620" fill="#00000000"/>


<rect width="40" height= "20" x="140" y="640" fill="#00000000"/>
<rect width="20" height= "20" x="180" y="640" fill="#6300ba"/>
<rect width="20" height= "20" x="200" y="640" fill="#0c002c"/>
<rect width="20" height= "20" x="220" y="640" fill="#440079"/>
<rect width="20" height= "20" x="240" y="640" fill="#2a0036"/>
<rect width="20" height= "20" x="260" y="640" fill="#8c00f3"/>
<rect width="20" height= "20" x="280" y="640" fill="#170034"/>
<rect width="20" height= "20" x="300" y="640" fill="#0b0018"/>
<rect width="20" height= "20" x="320" y="640" fill="#6200a9"/>
<rect width="20" height= "20" x="340" y="640" fill="#170034"/>
<rect width="20" height= "20" x="360" y="640" fill="#37006c"/>
<rect width="20" height= "20" x="380" y="640" fill="#000018"/>
<rect width="20" height= "20" x="400" y="640" fill="#0b0018"/>
<rect width="20" height= "20" x="420" y="640" fill="#000009"/>
<rect width="20" height= "20" x="440" y="640" fill="#000018"/>
<rect width="20" height= "20" x="460" y="640" fill="#0c002c"/>
<rect width="20" height= "20" x="480" y="640" fill="#170034"/>
<rect width="20" height= "20" x="500" y="640" fill="#000018"/>
<rect width="20" height= "20" x="520" y="640" fill="#170034"/>
<rect width="20" height= "20" x="540" y="640" fill="#000018"/>
<rect width="20" height= "20" x="560" y="640" fill="#170034"/>
<rect width="40" height= "20" x="580" y="640" fill="#00000000"/>


<rect width="60" height= "20" x="140" y="660" fill="#00000000"/>
<rect width="20" height= "20" x="200" y="660" fill="#170034"/>
<rect width="20" height= "20" x="220" y="660" fill="#000018"/>
<rect width="20" height= "20" x="240" y="660" fill="#8000d0"/>
<rect width="20" height= "20" x="260" y="660" fill="#170034"/>
<rect width="20" height= "20" x="280" y="660" fill="#23004a"/>
<rect width="20" height= "20" x="300" y="660" fill="#000018"/>
<rect width="20" height= "20" x="320" y="660" fill="#440079"/>
<rect width="20" height= "20" x="340" y="660" fill="#000018"/>
<rect width="20" height= "20" x="360" y="660" fill="#0c002c"/>
<rect width="20" height= "20" x="380" y="660" fill="#170034"/>
<rect width="20" height= "20" x="400" y="660" fill="#23004a"/>
<rect width="40" height= "20" x="420" y="660" fill="#170034"/>
<rect width="80" height= "20" x="460" y="660" fill="#000018"/>
<rect width="20" height= "20" x="540" y="660" fill="#170034"/>
<rect width="20" height= "20" x="560" y="660" fill="#5a009c"/>
<rect width="40" height= "20" x="580" y="660" fill="#00000000"/>


<rect width="80" height= "20" x="140" y="680" fill="#00000000"/>
<rect width="20" height= "20" x="220" y="680" fill="#170034"/>
<rect width="20" height= "20" x="240" y="680" fill="#0c002c"/>
<rect width="20" height= "20" x="260" y="680" fill="#440079"/>
<rect width="20" height= "20" x="280" y="680" fill="#2f0058"/>
<rect width="20" height= "20" x="300" y="680" fill="#0b0018"/>
<rect width="20" height= "20" x="320" y="680" fill="#000018"/>
<rect width="20" height= "20" x="340" y="680" fill="#170034"/>
<rect width="20" height= "20" x="360" y="680" fill="#0b0018"/>
<rect width="40" height= "20" x="380" y="680" fill="#000018"/>
<rect width="20" height= "20" x="420" y="680" fill="#000009"/>
<rect width="40" height= "20" x="440" y="680" fill="#000018"/>
<rect width="20" height= "20" x="480" y="680" fill="#170034"/>
<rect width="20" height= "20" x="500" y="680" fill="#000018"/>
<rect width="20" height= "20" x="520" y="680" fill="#0c002c"/>
<rect width="20" height= "20" x="540" y="680" fill="#440079"/>
<rect width="20" height= "20" x="560" y="680" fill="#2f0058"/>
<rect width="40" height= "20" x="580" y="680" fill="#00000000"/>


<rect width="80" height= "20" x="140" y="700" fill="#00000000"/>
<rect width="20" height= "20" x="220" y="700" fill="#170034"/>
<rect width="20" height= "20" x="240" y="700" fill="#000018"/>
<rect width="20" height= "20" x="260" y="700" fill="#0d001c"/>
<rect width="20" height= "20" x="280" y="700" fill="#2f0058"/>
<rect width="20" height= "20" x="300" y="700" fill="#170034"/>
<rect width="20" height= "20" x="320" y="700" fill="#23004a"/>
<rect width="20" height= "20" x="340" y="700" fill="#000018"/>
<rect width="40" height= "20" x="360" y="700" fill="#170034"/>
<rect width="20" height= "20" x="400" y="700" fill="#5a009c"/>
<rect width="80" height= "20" x="420" y="700" fill="#170034"/>
<rect width="40" height= "20" x="500" y="700" fill="#000018"/>
<rect width="20" height= "20" x="540" y="700" fill="#37006c"/>
<rect width="20" height= "20" x="560" y="700" fill="#6300ba"/>
<rect width="40" height= "20" x="580" y="700" fill="#00000000"/>


<rect width="80" height= "20" x="140" y="720" fill="#00000000"/>
<rect width="20" height= "20" x="220" y="720" fill="#270023"/>
<rect width="20" height= "20" x="240" y="720" fill="#2f0058"/>
<rect width="20" height= "20" x="260" y="720" fill="#000018"/>
<rect width="20" height= "20" x="280" y="720" fill="#3b004a"/>
<rect width="20" height= "20" x="300" y="720" fill="#0c002c"/>
<rect width="20" height= "20" x="320" y="720" fill="#000018"/>
<rect width="20" height= "20" x="340" y="720" fill="#0b0018"/>
<rect width="20" height= "20" x="360" y="720" fill="#170034"/>
<rect width="20" height= "20" x="380" y="720" fill="#000018"/>
<rect width="20" height= "20" x="400" y="720" fill="#37006c"/>
<rect width="80" height= "20" x="420" y="720" fill="#000018"/>
<rect width="20" height= "20" x="500" y="720" fill="#000009"/>
<rect width="20" height= "20" x="520" y="720" fill="#37006c"/>
<rect width="20" height= "20" x="540" y="720" fill="#000018"/>
<rect width="60" height= "20" x="560" y="720" fill="#00000000"/>


<rect width="80" height= "20" x="140" y="740" fill="#00000000"/>
<rect width="20" height= "20" x="220" y="740" fill="#2a0036"/>
<rect width="20" height= "20" x="240" y="740" fill="#0b0018"/>
<rect width="20" height= "20" x="260" y="740" fill="#000018"/>
<rect width="20" height= "20" x="280" y="740" fill="#48008c"/>
<rect width="20" height= "20" x="300" y="740" fill="#0b0018"/>
<rect width="40" height= "20" x="320" y="740" fill="#000018"/>
<rect width="20" height= "20" x="360" y="740" fill="#0b0018"/>
<rect width="40" height= "20" x="380" y="740" fill="#000018"/>
<rect width="40" height= "20" x="420" y="740" fill="#0c002c"/>
<rect width="40" height= "20" x="460" y="740" fill="#000018"/>
<rect width="20" height= "20" x="500" y="740" fill="#0b0018"/>
<rect width="40" height= "20" x="520" y="740" fill="#5a009c"/>
<rect width="60" height= "20" x="560" y="740" fill="#00000000"/>


<rect width="100" height= "20" x="140" y="760" fill="#00000000"/>
<rect width="20" height= "20" x="240" y="760" fill="#2a0036"/>
<rect width="20" height= "20" x="260" y="760" fill="#42005e"/>
<rect width="20" height= "20" x="280" y="760" fill="#270023"/>
<rect width="20" height= "20" x="300" y="760" fill="#a100ff"/>
<rect width="20" height= "20" x="320" y="760" fill="#170034"/>
<rect width="20" height= "20" x="340" y="760" fill="#5a009c"/>
<rect width="20" height= "20" x="360" y="760" fill="#000018"/>
<rect width="20" height= "20" x="380" y="760" fill="#0b0018"/>
<rect width="20" height= "20" x="400" y="760" fill="#2a0036"/>
<rect width="20" height= "20" x="420" y="760" fill="#000018"/>
<rect width="40" height= "20" x="440" y="760" fill="#0b0018"/>
<rect width="20" height= "20" x="480" y="760" fill="#000009"/>
<rect width="20" height= "20" x="500" y="760" fill="#270023"/>
<rect width="20" height= "20" x="520" y="760" fill="#170034"/>
<rect width="80" height= "20" x="540" y="760" fill="#00000000"/>


<rect width="120" height= "20" x="140" y="780" fill="#00000000"/>
<rect width="20" height= "20" x="260" y="780" fill="#1a001b"/>
<rect width="20" height= "20" x="280" y="780" fill="#23004a"/>
<rect width="20" height= "20" x="300" y="780" fill="#000009"/>
<rect width="20" height= "20" x="320" y="780" fill="#2a0036"/>
<rect width="20" height= "20" x="340" y="780" fill="#000018"/>
<rect width="20" height= "20" x="360" y="780" fill="#000009"/>
<rect width="20" height= "20" x="380" y="780" fill="#440079"/>
<rect width="40" height= "20" x="400" y="780" fill="#000018"/>
<rect width="20" height= "20" x="440" y="780" fill="#000009"/>
<rect width="60" height= "20" x="460" y="780" fill="#0b0018"/>
<rect width="20" height= "20" x="520" y="780" fill="#2a0036"/>
<rect width="80" height= "20" x="540" y="780" fill="#00000000"/>


<rect width="140" height= "20" x="140" y="800" fill="#00000000"/>
<rect width="20" height= "20" x="280" y="800" fill="#0b0018"/>
<rect width="20" height= "20" x="300" y="800" fill="#0d001c"/>
<rect width="20" height= "20" x="320" y="800" fill="#170034"/>
<rect width="20" height= "20" x="340" y="800" fill="#000018"/>
<rect width="20" height= "20" x="360" y="800" fill="#0b0018"/>
<rect width="20" height= "20" x="380" y="800" fill="#0d001c"/>
<rect width="20" height= "20" x="400" y="800" fill="#0b0018"/>
<rect width="20" height= "20" x="420" y="800" fill="#000009"/>
<rect width="20" height= "20" x="440" y="800" fill="#0b0018"/>
<rect width="20" height= "20" x="460" y="800" fill="#0c002c"/>
<rect width="20" height= "20" x="480" y="800" fill="#000009"/>
<rect width="20" height= "20" x="500" y="800" fill="#340029"/>
<rect width="20" height= "20" x="520" y="800" fill="#430030"/>
<rect width="80" height= "20" x="540" y="800" fill="#00000000"/>


<rect width="160" height= "20" x="140" y="820" fill="#00000000"/>
<rect width="20" height= "20" x="300" y="820" fill="#270023"/>
<rect width="20" height= "20" x="320" y="820" fill="#0b0018"/>
<rect width="20" height= "20" x="340" y="820" fill="#0c002c"/>
<rect width="20" height= "20" x="360" y="820" fill="#23004a"/>
<rect width="20" height= "20" x="380" y="820" fill="#0b0018"/>
<rect width="20" height= "20" x="400" y="820" fill="#0d001c"/>
<rect width="20" height= "20" x="420" y="820" fill="#000009"/>
<rect width="20" height= "20" x="440" y="820" fill="#0b0018"/>
<rect width="20" height= "20" x="460" y="820" fill="#42005e"/>
<rect width="20" height= "20" x="480" y="820" fill="#27000d"/>
<rect width="20" height= "20" x="500" y="820" fill="#200000"/>
<rect width="100" height= "20" x="520" y="820" fill="#00000000"/>


<rect width="200" height= "20" x="140" y="840" fill="#00000000"/>
<rect width="40" height= "20" x="340" y="840" fill="#0b0018"/>
<rect width="20" height= "20" x="380" y="840" fill="#270023"/>
<rect width="20" height= "20" x="400" y="840" fill="#000009"/>
<rect width="20" height= "20" x="420" y="840" fill="#000018"/>
<rect width="20" height= "20" x="440" y="840" fill="#0b0018"/>
<rect width="20" height= "20" x="460" y="840" fill="#2a0036"/>
<rect width="20" height= "20" x="480" y="840" fill="#270023"/>
<rect width="120" height= "20" x="500" y="840" fill="#00000000"/>


<rect width="220" height= "20" x="140" y="860" fill="#00000000"/>
<rect width="20" height= "20" x="360" y="860" fill="#310018"/>
<rect width="40" height= "20" x="380" y="860" fill="#0e0009"/>
<rect width="20" height= "20" x="420" y="860" fill="#1a001b"/>
<rect width="20" height= "20" x="440" y="860" fill="#3b004a"/>
<rect width="20" height= "20" x="460" y="860" fill="#270023"/>
</svg>