<svg width="480" height="700" viewbox ="139 120 480 700" xmlns="http://www.w3.org/2000/svg" shape-rendering="crispEdges"><rect width="200" height= "20" x="139" y="120" fill="#00000000"/><rect width="20" height= "20" x="339" y="120" fill="#3b434c"/><rect width="20" height= "20" x="359" y="120" fill="#494d55"/><rect width="20" height= "20" x="379" y="120" fill="#61676e"/><rect width="20" height= "20" x="399" y="120" fill="#697377"/><rect width="20" height= "20" x="419" y="120" fill="#4d5763"/><rect width="20" height= "20" x="439" y="120" fill="#00000000"/><rect width="20" height= "20" x="459" y="120" fill="#a5b6c7"/><rect width="140" height= "20" x="479" y="120" fill="#00000000"/><rect width="140" height= "20" x="139" y="140" fill="#00000000"/><rect width="20" height= "20" x="279" y="140" fill="#3b434c"/><rect width="20" height= "20" x="299" y="140" fill="#32373e"/><rect width="20" height= "20" x="319" y="140" fill="#3b434c"/><rect width="20" height= "20" x="339" y="140" fill="#32373e"/><rect width="20" height= "20" x="359" y="140" fill="#191d25"/><rect width="20" height= "20" x="379" y="140" fill="#32373e"/><rect width="20" height= "20" x="399" y="140" fill="#191d25"/><rect width="20" height= "20" x="419" y="140" fill="#000911"/><rect width="40" height= "20" x="439" y="140" fill="#32373e"/><rect width="20" height= "20" x="479" y="140" fill="#8592a1"/><rect width="120" height= "20" x="499" y="140" fill="#00000000"/><rect width="120" height= "20" x="139" y="160" fill="#00000000"/><rect width="20" height= "20" x="259" y="160" fill="#4d5763"/><rect width="20" height= "20" x="279" y="160" fill="#494d55"/><rect width="20" height= "20" x="299" y="160" fill="#000911"/><rect width="20" height= "20" x="319" y="160" fill="#191d25"/><rect width="40" height= "20" x="339" y="160" fill="#262a34"/><rect width="20" height= "20" x="379" y="160" fill="#191d25"/><rect width="20" height= "20" x="399" y="160" fill="#262a34"/><rect width="20" height= "20" x="419" y="160" fill="#32373e"/><rect width="20" height= "20" x="439" y="160" fill="#000911"/><rect width="20" height= "20" x="459" y="160" fill="#32373e"/><rect width="20" height= "20" x="479" y="160" fill="#000911"/><rect width="20" height= "20" x="499" y="160" fill="#3b434c"/><rect width="100" height= "20" x="519" y="160" fill="#00000000"/><rect width="80" height= "20" x="139" y="180" fill="#00000000"/><rect width="20" height= "20" x="219" y="180" fill="#3b434c"/><rect width="20" height= "20" x="239" y="180" fill="#0d161f"/><rect width="20" height= "20" x="259" y="180" fill="#494d55"/><rect width="20" height= "20" x="279" y="180" fill="#191d25"/><rect width="20" height= "20" x="299" y="180" fill="#262a34"/><rect width="20" height= "20" x="319" y="180" fill="#191d25"/><rect width="40" height= "20" x="339" y="180" fill="#262a34"/><rect width="20" height= "20" x="379" y="180" fill="#000911"/><rect width="60" height= "20" x="399" y="180" fill="#262a34"/><rect width="20" height= "20" x="459" y="180" fill="#0d161f"/><rect width="20" height= "20" x="479" y="180" fill="#32373e"/><rect width="20" height= "20" x="499" y="180" fill="#0d161f"/><rect width="20" height= "20" x="519" y="180" fill="#3b434c"/><rect width="80" height= "20" x="539" y="180" fill="#00000000"/><rect width="80" height= "20" x="139" y="200" fill="#00000000"/><rect width="20" height= "20" x="219" y="200" fill="#191d25"/><rect width="20" height= "20" x="239" y="200" fill="#262a34"/><rect width="20" height= "20" x="259" y="200" fill="#191d25"/><rect width="60" height= "20" x="279" y="200" fill="#32373e"/><rect width="20" height= "20" x="339" y="200" fill="#262a34"/><rect width="20" height= "20" x="359" y="200" fill="#191d25"/><rect width="20" height= "20" x="379" y="200" fill="#96a0ab"/><rect width="20" height= "20" x="399" y="200" fill="#0d161f"/><rect width="40" height= "20" x="419" y="200" fill="#191d25"/><rect width="20" height= "20" x="459" y="200" fill="#0d161f"/><rect width="40" height= "20" x="479" y="200" fill="#191d25"/><rect width="40" height= "20" x="519" y="200" fill="#262a34"/><rect width="60" height= "20" x="559" y="200" fill="#00000000"/><rect width="60" height= "20" x="139" y="220" fill="#00000000"/><rect width="20" height= "20" x="199" y="220" fill="#191d25"/><rect width="20" height= "20" x="219" y="220" fill="#262a34"/><rect width="20" height= "20" x="239" y="220" fill="#32373e"/><rect width="20" height= "20" x="259" y="220" fill="#262a34"/><rect width="20" height= "20" x="279" y="220" fill="#cae3eb"/><rect width="20" height= "20" x="299" y="220" fill="#3b434c"/><rect width="40" height= "20" x="319" y="220" fill="#32373e"/><rect width="20" height= "20" x="359" y="220" fill="#262a34"/><rect width="20" height= "20" x="379" y="220" fill="#26373f"/><rect width="40" height= "20" x="399" y="220" fill="#262a34"/><rect width="20" height= "20" x="439" y="220" fill="#32373e"/><rect width="20" height= "20" x="459" y="220" fill="#000911"/><rect width="20" height= "20" x="479" y="220" fill="#262a34"/><rect width="20" height= "20" x="499" y="220" fill="#32373e"/><rect width="40" height= "20" x="519" y="220" fill="#000911"/><rect width="20" height= "20" x="559" y="220" fill="#697377"/><rect width="40" height= "20" x="579" y="220" fill="#00000000"/><rect width="60" height= "20" x="139" y="240" fill="#00000000"/><rect width="20" height= "20" x="199" y="240" fill="#61676e"/><rect width="20" height= "20" x="219" y="240" fill="#32373e"/><rect width="40" height= "20" x="239" y="240" fill="#262a34"/><rect width="20" height= "20" x="279" y="240" fill="#32373e"/><rect width="20" height= "20" x="299" y="240" fill="#66849a"/><rect width="20" height= "20" x="319" y="240" fill="#000911"/><rect width="20" height= "20" x="339" y="240" fill="#191d25"/><rect width="20" height= "20" x="359" y="240" fill="#000911"/><rect width="20" height= "20" x="379" y="240" fill="#191d25"/><rect width="20" height= "20" x="399" y="240" fill="#32373e"/><rect width="20" height= "20" x="419" y="240" fill="#000911"/><rect width="20" height= "20" x="439" y="240" fill="#191d25"/><rect width="20" height= "20" x="459" y="240" fill="#32373e"/><rect width="60" height= "20" x="479" y="240" fill="#000911"/><rect width="20" height= "20" x="539" y="240" fill="#191d25"/><rect width="20" height= "20" x="559" y="240" fill="#4d5763"/><rect width="40" height= "20" x="579" y="240" fill="#00000000"/><rect width="60" height= "20" x="139" y="260" fill="#00000000"/><rect width="20" height= "20" x="199" y="260" fill="#4d5763"/><rect width="20" height= "20" x="219" y="260" fill="#0d161f"/><rect width="20" height= "20" x="239" y="260" fill="#262a34"/><rect width="20" height= "20" x="259" y="260" fill="#32373e"/><rect width="20" height= "20" x="279" y="260" fill="#262a34"/><rect width="40" height= "20" x="299" y="260" fill="#32373e"/><rect width="60" height= "20" x="339" y="260" fill="#262a34"/><rect width="20" height= "20" x="399" y="260" fill="#000911"/><rect width="20" height= "20" x="419" y="260" fill="#788fb0"/><rect width="40" height= "20" x="439" y="260" fill="#191d25"/><rect width="20" height= "20" x="479" y="260" fill="#000911"/><rect width="20" height= "20" x="499" y="260" fill="#262a34"/><rect width="20" height= "20" x="519" y="260" fill="#191d25"/><rect width="20" height= "20" x="539" y="260" fill="#262a34"/><rect width="20" height= "20" x="559" y="260" fill="#0d161f"/><rect width="20" height= "20" x="579" y="260" fill="#26373f"/><rect width="20" height= "20" x="599" y="260" fill="#00000000"/><rect width="40" height= "20" x="139" y="280" fill="#00000000"/><rect width="20" height= "20" x="179" y="280" fill="#32373e"/><rect width="20" height= "20" x="199" y="280" fill="#3b434c"/><rect width="20" height= "20" x="219" y="280" fill="#262a34"/><rect width="40" height= "20" x="239" y="280" fill="#191d25"/><rect width="20" height= "20" x="279" y="280" fill="#0d161f"/><rect width="60" height= "20" x="299" y="280" fill="#262a34"/><rect width="40" height= "20" x="359" y="280" fill="#000911"/><rect width="20" height= "20" x="399" y="280" fill="#262a34"/><rect width="40" height= "20" x="419" y="280" fill="#000911"/><rect width="20" height= "20" x="459" y="280" fill="#262a34"/><rect width="20" height= "20" x="479" y="280" fill="#32373e"/><rect width="20" height= "20" x="499" y="280" fill="#191d25"/><rect width="20" height= "20" x="519" y="280" fill="#000911"/><rect width="40" height= "20" x="539" y="280" fill="#191d25"/><rect width="20" height= "20" x="579" y="280" fill="#262a34"/><rect width="20" height= "20" x="599" y="280" fill="#00000000"/><rect width="40" height= "20" x="139" y="300" fill="#00000000"/><rect width="20" height= "20" x="179" y="300" fill="#4d5763"/><rect width="20" height= "20" x="199" y="300" fill="#a5b6c7"/><rect width="40" height= "20" x="219" y="300" fill="#262a34"/><rect width="20" height= "20" x="259" y="300" fill="#0d161f"/><rect width="20" height= "20" x="279" y="300" fill="#262a34"/><rect width="20" height= "20" x="299" y="300" fill="#000911"/><rect width="20" height= "20" x="319" y="300" fill="#191d25"/><rect width="20" height= "20" x="339" y="300" fill="#3b434c"/><rect width="20" height= "20" x="359" y="300" fill="#000911"/><rect width="20" height= "20" x="379" y="300" fill="#32373e"/><rect width="20" height= "20" x="399" y="300" fill="#191d25"/><rect width="60" height= "20" x="419" y="300" fill="#262a34"/><rect width="20" height= "20" x="479" y="300" fill="#0e1e2f"/><rect width="20" height= "20" x="499" y="300" fill="#1b2530"/><rect width="20" height= "20" x="519" y="300" fill="#191d25"/><rect width="40" height= "20" x="539" y="300" fill="#000911"/><rect width="20" height= "20" x="579" y="300" fill="#32373e"/><rect width="20" height= "20" x="599" y="300" fill="#00000000"/><rect width="20" height= "20" x="139" y="320" fill="#00000000"/><rect width="20" height= "20" x="159" y="320" fill="#5d707b"/><rect width="40" height= "20" x="179" y="320" fill="#32373e"/><rect width="40" height= "20" x="219" y="320" fill="#191d25"/><rect width="20" height= "20" x="259" y="320" fill="#0d161f"/><rect width="20" height= "20" x="279" y="320" fill="#191d25"/><rect width="20" height= "20" x="299" y="320" fill="#262a34"/><rect width="40" height= "20" x="319" y="320" fill="#191d25"/><rect width="40" height= "20" x="359" y="320" fill="#32373e"/><rect width="20" height= "20" x="399" y="320" fill="#000911"/><rect width="20" height= "20" x="419" y="320" fill="#7e8893"/><rect width="40" height= "20" x="439" y="320" fill="#000911"/><rect width="20" height= "20" x="479" y="320" fill="#32373e"/><rect width="40" height= "20" x="499" y="320" fill="#000911"/><rect width="20" height= "20" x="539" y="320" fill="#0d161f"/><rect width="20" height= "20" x="559" y="320" fill="#494d55"/><rect width="20" height= "20" x="579" y="320" fill="#191d25"/><rect width="20" height= "20" x="599" y="320" fill="#32373e"/><rect width="20" height= "20" x="139" y="340" fill="#00000000"/><rect width="20" height= "20" x="159" y="340" fill="#4d5763"/><rect width="20" height= "20" x="179" y="340" fill="#262a34"/><rect width="20" height= "20" x="199" y="340" fill="#bfc8cf"/><rect width="20" height= "20" x="219" y="340" fill="#262a34"/><rect width="20" height= "20" x="239" y="340" fill="#0c0811"/><rect width="20" height= "20" x="259" y="340" fill="#262a34"/><rect width="20" height= "20" x="279" y="340" fill="#3b434c"/><rect width="20" height= "20" x="299" y="340" fill="#000911"/><rect width="100" height= "20" x="319" y="340" fill="#262a34"/><rect width="60" height= "20" x="419" y="340" fill="#191d25"/><rect width="40" height= "20" x="479" y="340" fill="#000911"/><rect width="20" height= "20" x="519" y="340" fill="#262a34"/><rect width="40" height= "20" x="539" y="340" fill="#000911"/><rect width="40" height= "20" x="579" y="340" fill="#3b434c"/><rect width="20" height= "20" x="139" y="360" fill="#00000000"/><rect width="20" height= "20" x="159" y="360" fill="#4d5763"/><rect width="20" height= "20" x="179" y="360" fill="#191d25"/><rect width="20" height= "20" x="199" y="360" fill="#262a34"/><rect width="20" height= "20" x="219" y="360" fill="#000911"/><rect width="20" height= "20" x="239" y="360" fill="#32373e"/><rect width="20" height= "20" x="259" y="360" fill="#262a34"/><rect width="20" height= "20" x="279" y="360" fill="#000911"/><rect width="20" height= "20" x="299" y="360" fill="#494d55"/><rect width="20" height= "20" x="319" y="360" fill="#262a34"/><rect width="20" height= "20" x="339" y="360" fill="#3b434c"/><rect width="20" height= "20" x="359" y="360" fill="#262a34"/><rect width="20" height= "20" x="379" y="360" fill="#32373e"/><rect width="20" height= "20" x="399" y="360" fill="#000911"/><rect width="40" height= "20" x="419" y="360" fill="#191d25"/><rect width="100" height= "20" x="459" y="360" fill="#000911"/><rect width="20" height= "20" x="559" y="360" fill="#3b434c"/><rect width="20" height= "20" x="579" y="360" fill="#191d25"/><rect width="20" height= "20" x="599" y="360" fill="#262a34"/><rect width="20" height= "20" x="139" y="380" fill="#00000000"/><rect width="20" height= "20" x="159" y="380" fill="#1b2530"/><rect width="20" height= "20" x="179" y="380" fill="#191d25"/><rect width="20" height= "20" x="199" y="380" fill="#a6ccdb"/><rect width="20" height= "20" x="219" y="380" fill="#191d25"/><rect width="20" height= "20" x="239" y="380" fill="#4d5763"/><rect width="20" height= "20" x="259" y="380" fill="#32373e"/><rect width="60" height= "20" x="279" y="380" fill="#191d25"/><rect width="60" height= "20" x="339" y="380" fill="#262a34"/><rect width="20" height= "20" x="399" y="380" fill="#191d25"/><rect width="20" height= "20" x="419" y="380" fill="#0d161f"/><rect width="40" height= "20" x="439" y="380" fill="#262a34"/><rect width="40" height= "20" x="479" y="380" fill="#000911"/><rect width="20" height= "20" x="519" y="380" fill="#191d25"/><rect width="20" height= "20" x="539" y="380" fill="#000911"/><rect width="20" height= "20" x="559" y="380" fill="#191d25"/><rect width="20" height= "20" x="579" y="380" fill="#32373e"/><rect width="20" height= "20" x="599" y="380" fill="#000911"/><rect width="20" height= "20" x="139" y="400" fill="#00000000"/><rect width="20" height= "20" x="159" y="400" fill="#494d55"/><rect width="20" height= "20" x="179" y="400" fill="#3b434c"/><rect width="20" height= "20" x="199" y="400" fill="#61676e"/><rect width="20" height= "20" x="219" y="400" fill="#3b434c"/><rect width="20" height= "20" x="239" y="400" fill="#262a34"/><rect width="20" height= "20" x="259" y="400" fill="#191d25"/><rect width="20" height= "20" x="279" y="400" fill="#000911"/><rect width="20" height= "20" x="299" y="400" fill="#262a34"/><rect width="20" height= "20" x="319" y="400" fill="#0d161f"/><rect width="20" height= "20" x="339" y="400" fill="#3b434c"/><rect width="20" height= "20" x="359" y="400" fill="#000911"/><rect width="20" height= "20" x="379" y="400" fill="#494d55"/><rect width="20" height= "20" x="399" y="400" fill="#000911"/><rect width="20" height= "20" x="419" y="400" fill="#ccd5de"/><rect width="60" height= "20" x="439" y="400" fill="#191d25"/><rect width="40" height= "20" x="499" y="400" fill="#000911"/><rect width="40" height= "20" x="539" y="400" fill="#191d25"/><rect width="20" height= "20" x="579" y="400" fill="#61676e"/><rect width="20" height= "20" x="599" y="400" fill="#3b434c"/><rect width="20" height= "20" x="139" y="420" fill="#50646f"/><rect width="40" height= "20" x="159" y="420" fill="#32373e"/><rect width="40" height= "20" x="199" y="420" fill="#262a34"/><rect width="20" height= "20" x="239" y="420" fill="#32373e"/><rect width="20" height= "20" x="259" y="420" fill="#191d25"/><rect width="20" height= "20" x="279" y="420" fill="#262a34"/><rect width="20" height= "20" x="299" y="420" fill="#000911"/><rect width="20" height= "20" x="319" y="420" fill="#262a34"/><rect width="20" height= "20" x="339" y="420" fill="#32373e"/><rect width="20" height= "20" x="359" y="420" fill="#000911"/><rect width="20" height= "20" x="379" y="420" fill="#191d25"/><rect width="60" height= "20" x="399" y="420" fill="#000911"/><rect width="20" height= "20" x="459" y="420" fill="#0d161f"/><rect width="20" height= "20" x="479" y="420" fill="#000911"/><rect width="20" height= "20" x="499" y="420" fill="#191d25"/><rect width="20" height= "20" x="519" y="420" fill="#000911"/><rect width="40" height= "20" x="539" y="420" fill="#191d25"/><rect width="20" height= "20" x="579" y="420" fill="#0d161f"/><rect width="20" height= "20" x="599" y="420" fill="#000911"/><rect width="20" height= "20" x="139" y="440" fill="#00000000"/><rect width="20" height= "20" x="159" y="440" fill="#3b434c"/><rect width="20" height= "20" x="179" y="440" fill="#000911"/><rect width="20" height= "20" x="199" y="440" fill="#191d25"/><rect width="20" height= "20" x="219" y="440" fill="#494d55"/><rect width="60" height= "20" x="239" y="440" fill="#262a34"/><rect width="40" height= "20" x="299" y="440" fill="#191d25"/><rect width="20" height= "20" x="339" y="440" fill="#262a34"/><rect width="20" height= "20" x="359" y="440" fill="#0d161f"/><rect width="20" height= "20" x="379" y="440" fill="#262a34"/><rect width="20" height= "20" x="399" y="440" fill="#000911"/><rect width="20" height= "20" x="419" y="440" fill="#1b2530"/><rect width="20" height= "20" x="439" y="440" fill="#191d25"/><rect width="20" height= "20" x="459" y="440" fill="#000911"/><rect width="20" height= "20" x="479" y="440" fill="#697377"/><rect width="80" height= "20" x="499" y="440" fill="#000911"/><rect width="20" height= "20" x="579" y="440" fill="#3b434c"/><rect width="20" height= "20" x="599" y="440" fill="#494d55"/><rect width="20" height= "20" x="139" y="460" fill="#4d5763"/><rect width="20" height= "20" x="159" y="460" fill="#32373e"/><rect width="20" height= "20" x="179" y="460" fill="#ccd5de"/><rect width="20" height= "20" x="199" y="460" fill="#262a34"/><rect width="20" height= "20" x="219" y="460" fill="#0d161f"/><rect width="20" height= "20" x="239" y="460" fill="#3b434c"/><rect width="20" height= "20" x="259" y="460" fill="#32373e"/><rect width="20" height= "20" x="279" y="460" fill="#191d25"/><rect width="20" height= "20" x="299" y="460" fill="#3b434c"/><rect width="20" height= "20" x="319" y="460" fill="#000911"/><rect width="20" height= "20" x="339" y="460" fill="#3b434c"/><rect width="20" height= "20" x="359" y="460" fill="#494d55"/><rect width="20" height= "20" x="379" y="460" fill="#191d25"/><rect width="60" height= "20" x="399" y="460" fill="#000911"/><rect width="20" height= "20" x="459" y="460" fill="#262a34"/><rect width="40" height= "20" x="479" y="460" fill="#191d25"/><rect width="20" height= "20" x="519" y="460" fill="#000911"/><rect width="20" height= "20" x="539" y="460" fill="#61676e"/><rect width="40" height= "20" x="559" y="460" fill="#000911"/><rect width="20" height= "20" x="599" y="460" fill="#494d55"/><rect width="20" height= "20" x="139" y="480" fill="#00000000"/><rect width="20" height= "20" x="159" y="480" fill="#5d707b"/><rect width="20" height= "20" x="179" y="480" fill="#262a34"/><rect width="20" height= "20" x="199" y="480" fill="#494d55"/><rect width="20" height= "20" x="219" y="480" fill="#262a34"/><rect width="20" height= "20" x="239" y="480" fill="#0c0811"/><rect width="20" height= "20" x="259" y="480" fill="#32373e"/><rect width="20" height= "20" x="279" y="480" fill="#191d25"/><rect width="40" height= "20" x="299" y="480" fill="#3b434c"/><rect width="20" height= "20" x="339" y="480" fill="#262a34"/><rect width="20" height= "20" x="359" y="480" fill="#000911"/><rect width="20" height= "20" x="379" y="480" fill="#262a34"/><rect width="20" height= "20" x="399" y="480" fill="#191d25"/><rect width="20" height= "20" x="419" y="480" fill="#262a34"/><rect width="20" height= "20" x="439" y="480" fill="#000911"/><rect width="20" height= "20" x="459" y="480" fill="#191d25"/><rect width="20" height= "20" x="479" y="480" fill="#60584b"/><rect width="20" height= "20" x="499" y="480" fill="#000911"/><rect width="20" height= "20" x="519" y="480" fill="#0c0811"/><rect width="20" height= "20" x="539" y="480" fill="#000911"/><rect width="40" height= "20" x="559" y="480" fill="#0d161f"/><rect width="20" height= "20" x="599" y="480" fill="#00000000"/><rect width="20" height= "20" x="139" y="500" fill="#3b434c"/><rect width="20" height= "20" x="159" y="500" fill="#32373e"/><rect width="20" height= "20" x="179" y="500" fill="#66849a"/><rect width="20" height= "20" x="199" y="500" fill="#191d25"/><rect width="20" height= "20" x="219" y="500" fill="#ccd5de"/><rect width="20" height= "20" x="239" y="500" fill="#262a34"/><rect width="40" height= "20" x="259" y="500" fill="#000911"/><rect width="20" height= "20" x="299" y="500" fill="#262a34"/><rect width="20" height= "20" x="319" y="500" fill="#191d25"/><rect width="20" height= "20" x="339" y="500" fill="#0d161f"/><rect width="20" height= "20" x="359" y="500" fill="#32373e"/><rect width="20" height= "20" x="379" y="500" fill="#191d25"/><rect width="20" height= "20" x="399" y="500" fill="#000911"/><rect width="20" height= "20" x="419" y="500" fill="#0d161f"/><rect width="20" height= "20" x="439" y="500" fill="#000911"/><rect width="20" height= "20" x="459" y="500" fill="#262a34"/><rect width="20" height= "20" x="479" y="500" fill="#000911"/><rect width="20" height= "20" x="499" y="500" fill="#0d161f"/><rect width="20" height= "20" x="519" y="500" fill="#000911"/><rect width="20" height= "20" x="539" y="500" fill="#4d5763"/><rect width="20" height= "20" x="559" y="500" fill="#000911"/><rect width="20" height= "20" x="579" y="500" fill="#32373e"/><rect width="20" height= "20" x="599" y="500" fill="#00000000"/><rect width="20" height= "20" x="139" y="520" fill="#7e8893"/><rect width="20" height= "20" x="159" y="520" fill="#494d55"/><rect width="20" height= "20" x="179" y="520" fill="#191d25"/><rect width="20" height= "20" x="199" y="520" fill="#494d55"/><rect width="20" height= "20" x="219" y="520" fill="#191d25"/><rect width="20" height= "20" x="239" y="520" fill="#7e8893"/><rect width="20" height= "20" x="259" y="520" fill="#0d161f"/><rect width="40" height= "20" x="279" y="520" fill="#000911"/><rect width="20" height= "20" x="319" y="520" fill="#262a34"/><rect width="20" height= "20" x="339" y="520" fill="#91abb2"/><rect width="20" height= "20" x="359" y="520" fill="#ccd5de"/><rect width="20" height= "20" x="379" y="520" fill="#a5b6c7"/><rect width="20" height= "20" x="399" y="520" fill="#3b434c"/><rect width="20" height= "20" x="419" y="520" fill="#191d25"/><rect width="60" height= "20" x="439" y="520" fill="#000911"/><rect width="20" height= "20" x="499" y="520" fill="#0d161f"/><rect width="20" height= "20" x="519" y="520" fill="#000911"/><rect width="20" height= "20" x="539" y="520" fill="#191d25"/><rect width="20" height= "20" x="559" y="520" fill="#697377"/><rect width="20" height= "20" x="579" y="520" fill="#61676e"/><rect width="20" height= "20" x="599" y="520" fill="#00000000"/><rect width="20" height= "20" x="139" y="540" fill="#00000000"/><rect width="20" height= "20" x="159" y="540" fill="#32373e"/><rect width="20" height= "20" x="179" y="540" fill="#262a34"/><rect width="20" height= "20" x="199" y="540" fill="#32373e"/><rect width="40" height= "20" x="219" y="540" fill="#191d25"/><rect width="20" height= "20" x="259" y="540" fill="#32373e"/><rect width="20" height= "20" x="279" y="540" fill="#000911"/><rect width="20" height= "20" x="299" y="540" fill="#191d25"/><rect width="20" height= "20" x="319" y="540" fill="#0d161f"/><rect width="20" height= "20" x="339" y="540" fill="#000911"/><rect width="20" height= "20" x="359" y="540" fill="#3b434c"/><rect width="20" height= "20" x="379" y="540" fill="#000911"/><rect width="20" height= "20" x="399" y="540" fill="#191d25"/><rect width="20" height= "20" x="419" y="540" fill="#000911"/><rect width="20" height= "20" x="439" y="540" fill="#191d25"/><rect width="20" height= "20" x="459" y="540" fill="#262a34"/><rect width="20" height= "20" x="479" y="540" fill="#191d25"/><rect width="20" height= "20" x="499" y="540" fill="#0d161f"/><rect width="20" height= "20" x="519" y="540" fill="#000911"/><rect width="20" height= "20" x="539" y="540" fill="#262a34"/><rect width="20" height= "20" x="559" y="540" fill="#0d161f"/><rect width="20" height= "20" x="579" y="540" fill="#3b434c"/><rect width="20" height= "20" x="599" y="540" fill="#00000000"/><rect width="40" height= "20" x="139" y="560" fill="#00000000"/><rect width="60" height= "20" x="179" y="560" fill="#191d25"/><rect width="20" height= "20" x="239" y="560" fill="#262a34"/><rect width="20" height= "20" x="259" y="560" fill="#2d2f26"/><rect width="20" height= "20" x="279" y="560" fill="#262a34"/><rect width="20" height= "20" x="299" y="560" fill="#191d25"/><rect width="20" height= "20" x="319" y="560" fill="#0d161f"/><rect width="20" height= "20" x="339" y="560" fill="#191d25"/><rect width="20" height= "20" x="359" y="560" fill="#262a34"/><rect width="20" height= "20" x="379" y="560" fill="#494d55"/><rect width="20" height= "20" x="399" y="560" fill="#425961"/><rect width="20" height= "20" x="419" y="560" fill="#191d25"/><rect width="20" height= "20" x="439" y="560" fill="#494d55"/><rect width="20" height= "20" x="459" y="560" fill="#191d25"/><rect width="40" height= "20" x="479" y="560" fill="#000911"/><rect width="20" height= "20" x="519" y="560" fill="#000406"/><rect width="20" height= "20" x="539" y="560" fill="#000911"/><rect width="20" height= "20" x="559" y="560" fill="#0d161f"/><rect width="20" height= "20" x="579" y="560" fill="#697377"/><rect width="20" height= "20" x="599" y="560" fill="#00000000"/><rect width="40" height= "20" x="139" y="580" fill="#00000000"/><rect width="20" height= "20" x="179" y="580" fill="#6a7b83"/><rect width="20" height= "20" x="199" y="580" fill="#0d161f"/><rect width="20" height= "20" x="219" y="580" fill="#494d55"/><rect width="20" height= "20" x="239" y="580" fill="#2d2f26"/><rect width="20" height= "20" x="259" y="580" fill="#96a0ab"/><rect width="20" height= "20" x="279" y="580" fill="#191d25"/><rect width="20" height= "20" x="299" y="580" fill="#0c0811"/><rect width="20" height= "20" x="319" y="580" fill="#697377"/><rect width="20" height= "20" x="339" y="580" fill="#191d25"/><rect width="20" height= "20" x="359" y="580" fill="#3b434c"/><rect width="20" height= "20" x="379" y="580" fill="#000911"/><rect width="20" height= "20" x="399" y="580" fill="#0c0811"/><rect width="20" height= "20" x="419" y="580" fill="#000406"/><rect width="20" height= "20" x="439" y="580" fill="#000911"/><rect width="20" height= "20" x="459" y="580" fill="#0d161f"/><rect width="20" height= "20" x="479" y="580" fill="#191d25"/><rect width="20" height= "20" x="499" y="580" fill="#000911"/><rect width="20" height= "20" x="519" y="580" fill="#191d25"/><rect width="20" height= "20" x="539" y="580" fill="#000911"/><rect width="20" height= "20" x="559" y="580" fill="#191d25"/><rect width="40" height= "20" x="579" y="580" fill="#00000000"/><rect width="60" height= "20" x="139" y="600" fill="#00000000"/><rect width="20" height= "20" x="199" y="600" fill="#191d25"/><rect width="20" height= "20" x="219" y="600" fill="#000911"/><rect width="20" height= "20" x="239" y="600" fill="#898d93"/><rect width="20" height= "20" x="259" y="600" fill="#191d25"/><rect width="20" height= "20" x="279" y="600" fill="#262a34"/><rect width="20" height= "20" x="299" y="600" fill="#000911"/><rect width="20" height= "20" x="319" y="600" fill="#494d55"/><rect width="20" height= "20" x="339" y="600" fill="#000911"/><rect width="20" height= "20" x="359" y="600" fill="#0d161f"/><rect width="20" height= "20" x="379" y="600" fill="#191d25"/><rect width="20" height= "20" x="399" y="600" fill="#262a34"/><rect width="40" height= "20" x="419" y="600" fill="#191d25"/><rect width="80" height= "20" x="459" y="600" fill="#000911"/><rect width="20" height= "20" x="539" y="600" fill="#191d25"/><rect width="20" height= "20" x="559" y="600" fill="#61676e"/><rect width="40" height= "20" x="579" y="600" fill="#00000000"/><rect width="80" height= "20" x="139" y="620" fill="#00000000"/><rect width="20" height= "20" x="219" y="620" fill="#191d25"/><rect width="20" height= "20" x="239" y="620" fill="#0d161f"/><rect width="20" height= "20" x="259" y="620" fill="#494d55"/><rect width="20" height= "20" x="279" y="620" fill="#32373e"/><rect width="20" height= "20" x="299" y="620" fill="#0c0811"/><rect width="20" height= "20" x="319" y="620" fill="#000911"/><rect width="20" height= "20" x="339" y="620" fill="#191d25"/><rect width="20" height= "20" x="359" y="620" fill="#0c0811"/><rect width="40" height= "20" x="379" y="620" fill="#000911"/><rect width="20" height= "20" x="419" y="620" fill="#000406"/><rect width="40" height= "20" x="439" y="620" fill="#000911"/><rect width="20" height= "20" x="479" y="620" fill="#191d25"/><rect width="20" height= "20" x="499" y="620" fill="#000911"/><rect width="20" height= "20" x="519" y="620" fill="#0d161f"/><rect width="20" height= "20" x="539" y="620" fill="#494d55"/><rect width="20" height= "20" x="559" y="620" fill="#32373e"/><rect width="40" height= "20" x="579" y="620" fill="#00000000"/><rect width="80" height= "20" x="139" y="640" fill="#00000000"/><rect width="20" height= "20" x="219" y="640" fill="#191d25"/><rect width="20" height= "20" x="239" y="640" fill="#000911"/><rect width="20" height= "20" x="259" y="640" fill="#0e1314"/><rect width="20" height= "20" x="279" y="640" fill="#32373e"/><rect width="20" height= "20" x="299" y="640" fill="#191d25"/><rect width="20" height= "20" x="319" y="640" fill="#262a34"/><rect width="20" height= "20" x="339" y="640" fill="#000911"/><rect width="40" height= "20" x="359" y="640" fill="#191d25"/><rect width="20" height= "20" x="399" y="640" fill="#61676e"/><rect width="80" height= "20" x="419" y="640" fill="#191d25"/><rect width="40" height= "20" x="499" y="640" fill="#000911"/><rect width="20" height= "20" x="539" y="640" fill="#3b434c"/><rect width="20" height= "20" x="559" y="640" fill="#6a7b83"/><rect width="40" height= "20" x="579" y="640" fill="#00000000"/><rect width="80" height= "20" x="139" y="660" fill="#00000000"/><rect width="20" height= "20" x="219" y="660" fill="#2a2019"/><rect width="20" height= "20" x="239" y="660" fill="#32373e"/><rect width="20" height= "20" x="259" y="660" fill="#000911"/><rect width="20" height= "20" x="279" y="660" fill="#3f3c34"/><rect width="20" height= "20" x="299" y="660" fill="#0d161f"/><rect width="20" height= "20" x="319" y="660" fill="#000911"/><rect width="20" height= "20" x="339" y="660" fill="#0c0811"/><rect width="20" height= "20" x="359" y="660" fill="#191d25"/><rect width="20" height= "20" x="379" y="660" fill="#000911"/><rect width="20" height= "20" x="399" y="660" fill="#3b434c"/><rect width="80" height= "20" x="419" y="660" fill="#000911"/><rect width="20" height= "20" x="499" y="660" fill="#000406"/><rect width="20" height= "20" x="519" y="660" fill="#3b434c"/><rect width="20" height= "20" x="539" y="660" fill="#000911"/><rect width="60" height= "20" x="559" y="660" fill="#00000000"/><rect width="80" height= "20" x="139" y="680" fill="#00000000"/><rect width="20" height= "20" x="219" y="680" fill="#2d2f26"/><rect width="20" height= "20" x="239" y="680" fill="#0c0811"/><rect width="20" height= "20" x="259" y="680" fill="#000911"/><rect width="20" height= "20" x="279" y="680" fill="#4d5763"/><rect width="20" height= "20" x="299" y="680" fill="#0c0811"/><rect width="40" height= "20" x="319" y="680" fill="#000911"/><rect width="20" height= "20" x="359" y="680" fill="#0c0811"/><rect width="40" height= "20" x="379" y="680" fill="#000911"/><rect width="40" height= "20" x="419" y="680" fill="#0d161f"/><rect width="40" height= "20" x="459" y="680" fill="#000911"/><rect width="20" height= "20" x="499" y="680" fill="#0c0811"/><rect width="40" height= "20" x="519" y="680" fill="#61676e"/><rect width="60" height= "20" x="559" y="680" fill="#00000000"/><rect width="100" height= "20" x="139" y="700" fill="#00000000"/><rect width="20" height= "20" x="239" y="700" fill="#2d2f26"/><rect width="20" height= "20" x="259" y="700" fill="#474442"/><rect width="20" height= "20" x="279" y="700" fill="#2a2019"/><rect width="20" height= "20" x="299" y="700" fill="#adbbbc"/><rect width="20" height= "20" x="319" y="700" fill="#191d25"/><rect width="20" height= "20" x="339" y="700" fill="#61676e"/><rect width="20" height= "20" x="359" y="700" fill="#000911"/><rect width="20" height= "20" x="379" y="700" fill="#0c0811"/><rect width="20" height= "20" x="399" y="700" fill="#2d2f26"/><rect width="20" height= "20" x="419" y="700" fill="#000911"/><rect width="40" height= "20" x="439" y="700" fill="#0c0811"/><rect width="20" height= "20" x="479" y="700" fill="#000406"/><rect width="20" height= "20" x="499" y="700" fill="#2a2019"/><rect width="20" height= "20" x="519" y="700" fill="#191d25"/><rect width="80" height= "20" x="539" y="700" fill="#00000000"/><rect width="120" height= "20" x="139" y="720" fill="#00000000"/><rect width="20" height= "20" x="259" y="720" fill="#1c1513"/><rect width="20" height= "20" x="279" y="720" fill="#262a34"/><rect width="20" height= "20" x="299" y="720" fill="#000406"/><rect width="20" height= "20" x="319" y="720" fill="#2d2f26"/><rect width="20" height= "20" x="339" y="720" fill="#000911"/><rect width="20" height= "20" x="359" y="720" fill="#000406"/><rect width="20" height= "20" x="379" y="720" fill="#494d55"/><rect width="40" height= "20" x="399" y="720" fill="#000911"/><rect width="20" height= "20" x="439" y="720" fill="#000406"/><rect width="60" height= "20" x="459" y="720" fill="#0c0811"/><rect width="20" height= "20" x="519" y="720" fill="#2d2f26"/><rect width="80" height= "20" x="539" y="720" fill="#00000000"/><rect width="140" height= "20" x="139" y="740" fill="#00000000"/><rect width="20" height= "20" x="279" y="740" fill="#0c0811"/><rect width="20" height= "20" x="299" y="740" fill="#0e1314"/><rect width="20" height= "20" x="319" y="740" fill="#191d25"/><rect width="20" height= "20" x="339" y="740" fill="#000911"/><rect width="20" height= "20" x="359" y="740" fill="#0c0811"/><rect width="20" height= "20" x="379" y="740" fill="#0e1314"/><rect width="20" height= "20" x="399" y="740" fill="#0c0811"/><rect width="20" height= "20" x="419" y="740" fill="#000406"/><rect width="20" height= "20" x="439" y="740" fill="#0c0811"/><rect width="20" height= "20" x="459" y="740" fill="#0d161f"/><rect width="20" height= "20" x="479" y="740" fill="#000406"/><rect width="20" height= "20" x="499" y="740" fill="#382d1d"/><rect width="20" height= "20" x="519" y="740" fill="#483a22"/><rect width="80" height= "20" x="539" y="740" fill="#00000000"/><rect width="160" height= "20" x="139" y="760" fill="#00000000"/><rect width="20" height= "20" x="299" y="760" fill="#2a2019"/><rect width="20" height= "20" x="319" y="760" fill="#0c0811"/><rect width="20" height= "20" x="339" y="760" fill="#0d161f"/><rect width="20" height= "20" x="359" y="760" fill="#262a34"/><rect width="20" height= "20" x="379" y="760" fill="#0c0811"/><rect width="20" height= "20" x="399" y="760" fill="#0e1314"/><rect width="20" height= "20" x="419" y="760" fill="#000406"/><rect width="20" height= "20" x="439" y="760" fill="#0c0811"/><rect width="20" height= "20" x="459" y="760" fill="#474442"/><rect width="20" height= "20" x="479" y="760" fill="#2a2409"/><rect width="20" height= "20" x="499" y="760" fill="#221000"/><rect width="100" height= "20" x="519" y="760" fill="#00000000"/><rect width="200" height= "20" x="139" y="780" fill="#00000000"/><rect width="40" height= "20" x="339" y="780" fill="#0c0811"/><rect width="20" height= "20" x="379" y="780" fill="#2a2019"/><rect width="20" height= "20" x="399" y="780" fill="#000406"/><rect width="20" height= "20" x="419" y="780" fill="#000911"/><rect width="20" height= "20" x="439" y="780" fill="#0c0811"/><rect width="20" height= "20" x="459" y="780" fill="#2d2f26"/><rect width="20" height= "20" x="479" y="780" fill="#2a2019"/><rect width="120" height= "20" x="499" y="780" fill="#00000000"/><rect width="220" height= "20" x="139" y="800" fill="#00000000"/><rect width="20" height= "20" x="359" y="800" fill="#352511"/><rect width="40" height= "20" x="379" y="800" fill="#0f0906"/><rect width="20" height= "20" x="419" y="800" fill="#1c1513"/><rect width="20" height= "20" x="439" y="800" fill="#3f3c34"/><rect width="20" height= "20" x="459" y="800" fill="#2a2019"/><rect width="140" height= "20" x="479" y="800" fill="#00000000"/></svg>