<svg width="560" height="760" viewbox ="59 68 560 760" xmlns="http://www.w3.org/2000/svg" shape-rendering="crispEdges"><rect width="600" height= "20" x="1199" y="828" fill="#00000000"/><rect width="20" height= "20" x="1219" y="828" fill="#292b2b"/><rect width="40" height= "20" x="1259" y="828" fill="#505157"/><rect width="80" height= "20" x="1339" y="828" fill="#292b2b"/><rect width="20" height= "20" x="1359" y="828" fill="#1e1c1d"/><rect width="400" height= "20" x="1759" y="828" fill="#00000000"/><rect width="20" height= "20" x="1779" y="828" fill="#292b2b"/><rect width="40" height= "20" x="1819" y="828" fill="#505157"/><rect width="40" height= "20" x="1859" y="828" fill="#292b2b"/><rect width="20" height= "20" x="1879" y="828" fill="#96989d"/><rect width="20" height= "20" x="1899" y="828" fill="#808486"/><rect width="440" height= "20" x="2339" y="828" fill="#00000000"/><rect width="20" height= "20" x="2359" y="828" fill="#505157"/><rect width="100" height= "20" x="2459" y="828" fill="#000000"/><rect width="440" height= "20" x="2899" y="828" fill="#00000000"/><rect width="20" height= "20" x="2919" y="828" fill="#d7dbdc"/><rect width="540" height= "20" x="3459" y="828" fill="#00000000"/><rect width="20" height= "20" x="3479" y="828" fill="#d7dbdc"/><rect width="540" height= "20" x="4019" y="828" fill="#00000000"/><rect width="20" height= "20" x="4039" y="828" fill="#cacdce"/><rect width="120" height= "20" x="4159" y="828" fill="#000000"/><rect width="40" height= "20" x="4199" y="828" fill="#00000000"/><rect width="20" height= "20" x="4219" y="828" fill="#000000"/><rect width="20" height= "20" x="4239" y="828" fill="#505157"/><rect width="20" height= "20" x="4259" y="828" fill="#494949"/><rect width="20" height= "20" x="4279" y="828" fill="#000000"/><rect width="300" height= "20" x="4579" y="828" fill="#00000000"/><rect width="20" height= "20" x="4599" y="828" fill="#d7dbdc"/><rect width="80" height= "20" x="4679" y="828" fill="#000000"/><rect width="20" height= "20" x="4699" y="828" fill="#505157"/><rect width="20" height= "20" x="4719" y="828" fill="#808486"/><rect width="20" height= "20" x="4739" y="828" fill="#96989d"/><rect width="100" height= "20" x="4839" y="828" fill="#9aa3ac"/><rect width="20" height= "20" x="4859" y="828" fill="#505157"/><rect width="40" height= "20" x="4899" y="828" fill="#494949"/><rect width="20" height= "20" x="4919" y="828" fill="#505157"/><rect width="220" height= "20" x="5139" y="828" fill="#00000000"/><rect width="20" height= "20" x="5159" y="828" fill="#cacdce"/><rect width="40" height= "20" x="5199" y="828" fill="#000000"/><rect width="40" height= "20" x="5239" y="828" fill="#494949"/><rect width="20" height= "20" x="5259" y="828" fill="#5a6867"/><rect width="20" height= "20" x="5279" y="828" fill="#505157"/><rect width="100" height= "20" x="5379" y="828" fill="#5a6867"/><rect width="20" height= "20" x="5399" y="828" fill="#515d5d"/><rect width="20" height= "20" x="5419" y="828" fill="#5a6867"/><rect width="80" height= "20" x="5499" y="828" fill="#505157"/><rect width="200" height= "20" x="5699" y="828" fill="#00000000"/><rect width="20" height= "20" x="5719" y="828" fill="#cacdce"/><rect width="20" height= "20" x="5739" y="828" fill="#000000"/><rect width="20" height= "20" x="5759" y="828" fill="#494949"/><rect width="20" height= "20" x="5779" y="828" fill="#505157"/><rect width="160" height= "20" x="5939" y="828" fill="#667675"/><rect width="60" height= "20" x="5999" y="828" fill="#5a6867"/><rect width="60" height= "20" x="6059" y="828" fill="#505157"/><rect width="20" height= "20" x="6079" y="828" fill="#5a6867"/><rect width="20" height= "20" x="6099" y="828" fill="#000000"/><rect width="160" height= "20" x="6259" y="828" fill="#00000000"/><rect width="20" height= "20" x="6279" y="828" fill="#cacdce"/><rect width="20" height= "20" x="6299" y="828" fill="#505157"/><rect width="20" height= "20" x="6319" y="828" fill="#494949"/><rect width="20" height= "20" x="6339" y="828" fill="#667675"/><rect width="20" height= "20" x="6359" y="828" fill="#748483"/><rect width="20" height= "20" x="6379" y="828" fill="#5a6867"/><rect width="60" height= "20" x="6439" y="828" fill="#808486"/><rect width="80" height= "20" x="6519" y="828" fill="#748483"/><rect width="20" height= "20" x="6539" y="828" fill="#667675"/><rect width="40" height= "20" x="6579" y="828" fill="#5a6867"/><rect width="20" height= "20" x="6599" y="828" fill="#505157"/><rect width="20" height= "20" x="6619" y="828" fill="#a6b0b2"/><rect width="20" height= "20" x="6639" y="828" fill="#9aa3ac"/><rect width="20" height= "20" x="6659" y="828" fill="#5a6867"/><rect width="140" height= "20" x="6799" y="828" fill="#00000000"/><rect width="20" height= "20" x="6819" y="828" fill="#494949"/><rect width="20" height= "20" x="6839" y="828" fill="#bec2c2"/><rect width="20" height= "20" x="6859" y="828" fill="#494949"/><rect width="20" height= "20" x="6879" y="828" fill="#5a6867"/><rect width="20" height= "20" x="6899" y="828" fill="#808486"/><rect width="20" height= "20" x="6919" y="828" fill="#d7dbdc"/><rect width="20" height= "20" x="6939" y="828" fill="#96989d"/><rect width="100" height= "20" x="7039" y="828" fill="#849491"/><rect width="60" height= "20" x="7099" y="828" fill="#808486"/><rect width="20" height= "20" x="7119" y="828" fill="#667675"/><rect width="20" height= "20" x="7139" y="828" fill="#5a6867"/><rect width="20" height= "20" x="7159" y="828" fill="#515d5d"/><rect width="20" height= "20" x="7179" y="828" fill="#505157"/><rect width="40" height= "20" x="7219" y="828" fill="#a6b0b2"/><rect width="20" height= "20" x="7239" y="828" fill="#5a6867"/><rect width="140" height= "20" x="7379" y="828" fill="#00000000"/><rect width="20" height= "20" x="7399" y="828" fill="#a6b0b2"/><rect width="20" height= "20" x="7419" y="828" fill="#313a39"/><rect width="20" height= "20" x="7439" y="828" fill="#808486"/><rect width="60" height= "20" x="7499" y="828" fill="#849491"/><rect width="20" height= "20" x="7519" y="828" fill="#e6eeee"/><rect width="80" height= "20" x="7599" y="828" fill="#96989d"/><rect width="60" height= "20" x="7659" y="828" fill="#849491"/><rect width="20" height= "20" x="7679" y="828" fill="#748483"/><rect width="20" height= "20" x="7699" y="828" fill="#667675"/><rect width="40" height= "20" x="7739" y="828" fill="#5a6867"/><rect width="20" height= "20" x="7759" y="828" fill="#b3bbc5"/><rect width="20" height= "20" x="7779" y="828" fill="#8b969e"/><rect width="20" height= "20" x="7799" y="828" fill="#a6b0b2"/><rect width="20" height= "20" x="7819" y="828" fill="#000000"/><rect width="120" height= "20" x="7939" y="828" fill="#00000000"/><rect width="20" height= "20" x="7959" y="828" fill="#849491"/><rect width="20" height= "20" x="7979" y="828" fill="#313a39"/><rect width="20" height= "20" x="7999" y="828" fill="#849491"/><rect width="20" height= "20" x="8019" y="828" fill="#8b969e"/><rect width="40" height= "20" x="8059" y="828" fill="#849491"/><rect width="20" height= "20" x="8079" y="828" fill="#96989d"/><rect width="80" height= "20" x="8159" y="828" fill="#9aa3ac"/><rect width="20" height= "20" x="8179" y="828" fill="#96989d"/><rect width="60" height= "20" x="8239" y="828" fill="#849491"/><rect width="20" height= "20" x="8259" y="828" fill="#748483"/><rect width="40" height= "20" x="8299" y="828" fill="#5a6867"/><rect width="40" height= "20" x="8339" y="828" fill="#505157"/><rect width="20" height= "20" x="8359" y="828" fill="#5a6867"/><rect width="20" height= "20" x="8379" y="828" fill="#748483"/><rect width="100" height= "20" x="8479" y="828" fill="#00000000"/><rect width="20" height= "20" x="8499" y="828" fill="#686868"/><rect width="20" height= "20" x="8519" y="828" fill="#515d5d"/><rect width="20" height= "20" x="8539" y="828" fill="#5a6867"/><rect width="40" height= "20" x="8579" y="828" fill="#849491"/><rect width="40" height= "20" x="8619" y="828" fill="#96989d"/><rect width="20" height= "20" x="8639" y="828" fill="#849491"/><rect width="60" height= "20" x="8699" y="828" fill="#a6b0b2"/><rect width="20" height= "20" x="8719" y="828" fill="#96989d"/><rect width="20" height= "20" x="8739" y="828" fill="#a6b0b2"/><rect width="20" height= "20" x="8759" y="828" fill="#849491"/><rect width="20" height= "20" x="8779" y="828" fill="#667675"/><rect width="20" height= "20" x="8799" y="828" fill="#849491"/><rect width="20" height= "20" x="8819" y="828" fill="#808486"/><rect width="20" height= "20" x="8839" y="828" fill="#667675"/><rect width="80" height= "20" x="8919" y="828" fill="#5a6867"/><rect width="20" height= "20" x="8939" y="828" fill="#808486"/><rect width="100" height= "20" x="9039" y="828" fill="#00000000"/><rect width="20" height= "20" x="9059" y="828" fill="#494949"/><rect width="20" height= "20" x="9079" y="828" fill="#3c4443"/><rect width="20" height= "20" x="9099" y="828" fill="#808486"/><rect width="20" height= "20" x="9119" y="828" fill="#9aa3ac"/><rect width="40" height= "20" x="9159" y="828" fill="#849491"/><rect width="40" height= "20" x="9199" y="828" fill="#e6eeee"/><rect width="20" height= "20" x="9219" y="828" fill="#d7dbdc"/><rect width="60" height= "20" x="9279" y="828" fill="#a6b0b2"/><rect width="20" height= "20" x="9299" y="828" fill="#9aa3ac"/><rect width="20" height= "20" x="9319" y="828" fill="#a6b0b2"/><rect width="20" height= "20" x="9339" y="828" fill="#96989d"/><rect width="40" height= "20" x="9379" y="828" fill="#849491"/><rect width="20" height= "20" x="9399" y="828" fill="#808486"/><rect width="20" height= "20" x="9419" y="828" fill="#667675"/><rect width="40" height= "20" x="9459" y="828" fill="#5a6867"/><rect width="20" height= "20" x="9479" y="828" fill="#748483"/><rect width="20" height= "20" x="9499" y="828" fill="#808486"/><rect width="20" height= "20" x="9519" y="828" fill="#000000"/><rect width="60" height= "20" x="9579" y="828" fill="#00000000"/><rect width="40" height= "20" x="9619" y="828" fill="#000000"/><rect width="20" height= "20" x="9639" y="828" fill="#463326"/><rect width="20" height= "20" x="9659" y="828" fill="#976f4a"/><rect width="20" height= "20" x="9679" y="828" fill="#9aa3ac"/><rect width="20" height= "20" x="9699" y="828" fill="#808486"/><rect width="20" height= "20" x="9719" y="828" fill="#a6b0b2"/><rect width="20" height= "20" x="9739" y="828" fill="#bec2c2"/><rect width="20" height= "20" x="9759" y="828" fill="#e6eeee"/><rect width="20" height= "20" x="9779" y="828" fill="#9aa3ac"/><rect width="20" height= "20" x="9799" y="828" fill="#b3bbc5"/><rect width="20" height= "20" x="9819" y="828" fill="#bec2c2"/><rect width="20" height= "20" x="9839" y="828" fill="#a6b0b2"/><rect width="20" height= "20" x="9859" y="828" fill="#9aa3ac"/><rect width="40" height= "20" x="9899" y="828" fill="#849491"/><rect width="40" height= "20" x="9939" y="828" fill="#96989d"/><rect width="20" height= "20" x="9959" y="828" fill="#808486"/><rect width="20" height= "20" x="9979" y="828" fill="#667675"/><rect width="40" height= "20" x="10019" y="828" fill="#5a6867"/><rect width="20" height= "20" x="10039" y="828" fill="#748483"/><rect width="20" height= "20" x="10059" y="828" fill="#667675"/><rect width="20" height= "20" x="10079" y="828" fill="#808475"/><rect width="60" height= "20" x="10139" y="828" fill="#00000000"/><rect width="20" height= "20" x="10159" y="828" fill="#66523c"/><rect width="20" height= "20" x="10179" y="828" fill="#849491"/><rect width="20" height= "20" x="10199" y="828" fill="#100c09"/><rect width="20" height= "20" x="10219" y="828" fill="#b79d7d"/><rect width="20" height= "20" x="10239" y="828" fill="#cacdce"/><rect width="20" height= "20" x="10259" y="828" fill="#808486"/><rect width="20" height= "20" x="10279" y="828" fill="#96989d"/><rect width="20" height= "20" x="10299" y="828" fill="#849491"/><rect width="20" height= "20" x="10319" y="828" fill="#e6eeee"/><rect width="20" height= "20" x="10339" y="828" fill="#d7dbdc"/><rect width="20" height= "20" x="10359" y="828" fill="#b3bbba"/><rect width="20" height= "20" x="10379" y="828" fill="#bec2c2"/><rect width="20" height= "20" x="10399" y="828" fill="#a6b0b2"/><rect width="20" height= "20" x="10419" y="828" fill="#9aa3ac"/><rect width="20" height= "20" x="10439" y="828" fill="#96989d"/><rect width="20" height= "20" x="10459" y="828" fill="#849491"/><rect width="20" height= "20" x="10479" y="828" fill="#96989d"/><rect width="20" height= "20" x="10499" y="828" fill="#000000"/><rect width="20" height= "20" x="10519" y="828" fill="#505157"/><rect width="20" height= "20" x="10539" y="828" fill="#748483"/><rect width="40" height= "20" x="10579" y="828" fill="#5a6867"/><rect width="40" height= "20" x="10619" y="828" fill="#727878"/><rect width="20" height= "20" x="10639" y="828" fill="#8b827e"/><rect width="60" height= "20" x="10699" y="828" fill="#00000000"/><rect width="20" height= "20" x="10719" y="828" fill="#808475"/><rect width="20" height= "20" x="10739" y="828" fill="#e6eeee"/><rect width="20" height= "20" x="10759" y="828" fill="#292b2b"/><rect width="20" height= "20" x="10779" y="828" fill="#af8b6b"/><rect width="20" height= "20" x="10799" y="828" fill="#e6eeee"/><rect width="20" height= "20" x="10819" y="828" fill="#b3bbba"/><rect width="20" height= "20" x="10839" y="828" fill="#808486"/><rect width="40" height= "20" x="10879" y="828" fill="#9aa3ac"/><rect width="40" height= "20" x="10919" y="828" fill="#e6eeee"/><rect width="20" height= "20" x="10939" y="828" fill="#bec2c2"/><rect width="20" height= "20" x="10959" y="828" fill="#a6b0b2"/><rect width="20" height= "20" x="10979" y="828" fill="#9aa3ac"/><rect width="20" height= "20" x="10999" y="828" fill="#96989d"/><rect width="40" height= "20" x="11039" y="828" fill="#849491"/><rect width="20" height= "20" x="11059" y="828" fill="#9aa3ac"/><rect width="20" height= "20" x="11079" y="828" fill="#a6b0b2"/><rect width="20" height= "20" x="11099" y="828" fill="#000000"/><rect width="20" height= "20" x="11119" y="828" fill="#6a5857"/><rect width="20" height= "20" x="11139" y="828" fill="#595d68"/><rect width="20" height= "20" x="11159" y="828" fill="#6a5857"/><rect width="20" height= "20" x="11179" y="828" fill="#756667"/><rect width="20" height= "20" x="11199" y="828" fill="#8b827e"/><rect width="60" height= "20" x="11259" y="828" fill="#00000000"/><rect width="20" height= "20" x="11279" y="828" fill="#dab58c"/><rect width="20" height= "20" x="11299" y="828" fill="#292b2b"/><rect width="20" height= "20" x="11319" y="828" fill="#373129"/><rect width="20" height= "20" x="11339" y="828" fill="#af8b6b"/><rect width="20" height= "20" x="11359" y="828" fill="#e6eeee"/><rect width="20" height= "20" x="11379" y="828" fill="#bec2c2"/><rect width="20" height= "20" x="11399" y="828" fill="#d7dbdc"/><rect width="20" height= "20" x="11419" y="828" fill="#727878"/><rect width="20" height= "20" x="11439" y="828" fill="#d7dbdc"/><rect width="20" height= "20" x="11459" y="828" fill="#756667"/><rect width="20" height= "20" x="11479" y="828" fill="#96989d"/><rect width="20" height= "20" x="11499" y="828" fill="#cacdce"/><rect width="20" height= "20" x="11519" y="828" fill="#9aa3ac"/><rect width="20" height= "20" x="11539" y="828" fill="#7d7279"/><rect width="40" height= "20" x="11579" y="828" fill="#997873"/><rect width="20" height= "20" x="11599" y="828" fill="#96989d"/><rect width="40" height= "20" x="11639" y="828" fill="#856563"/><rect width="20" height= "20" x="11659" y="828" fill="#515d5d"/><rect width="20" height= "20" x="11679" y="828" fill="#bec2c2"/><rect width="20" height= "20" x="11699" y="828" fill="#849491"/><rect width="40" height= "20" x="11739" y="828" fill="#808486"/><rect width="20" height= "20" x="11759" y="828" fill="#686868"/><rect width="60" height= "20" x="11819" y="828" fill="#00000000"/><rect width="20" height= "20" x="11839" y="828" fill="#caa57c"/><rect width="20" height= "20" x="11859" y="828" fill="#292b2b"/><rect width="20" height= "20" x="11879" y="828" fill="#a47c56"/><rect width="20" height= "20" x="11899" y="828" fill="#9f7f68"/><rect width="20" height= "20" x="11919" y="828" fill="#bec2c2"/><rect width="20" height= "20" x="11939" y="828" fill="#292b2b"/><rect width="20" height= "20" x="11959" y="828" fill="#313a39"/><rect width="20" height= "20" x="11979" y="828" fill="#292b2b"/><rect width="60" height= "20" x="12039" y="828" fill="#313a39"/><rect width="20" height= "20" x="12059" y="828" fill="#292b2b"/><rect width="20" height= "20" x="12079" y="828" fill="#313a39"/><rect width="40" height= "20" x="12119" y="828" fill="#373129"/><rect width="100" height= "20" x="12219" y="828" fill="#292b2b"/><rect width="40" height= "20" x="12259" y="828" fill="#1e1c1d"/><rect width="20" height= "20" x="12279" y="828" fill="#808486"/><rect width="20" height= "20" x="12299" y="828" fill="#96989d"/><rect width="20" height= "20" x="12319" y="828" fill="#8b827e"/><rect width="20" height= "20" x="12339" y="828" fill="#000000"/><rect width="40" height= "20" x="12379" y="828" fill="#00000000"/><rect width="20" height= "20" x="12399" y="828" fill="#4e3e29"/><rect width="20" height= "20" x="12419" y="828" fill="#af8b6b"/><rect width="20" height= "20" x="12439" y="828" fill="#976f4a"/><rect width="20" height= "20" x="12459" y="828" fill="#000000"/><rect width="40" height= "20" x="12499" y="828" fill="#8a5b55"/><rect width="20" height= "20" x="12519" y="828" fill="#cacdce"/><rect width="20" height= "20" x="12539" y="828" fill="#b3bbba"/><rect width="20" height= "20" x="12559" y="828" fill="#f8f6f6"/><rect width="60" height= "20" x="12619" y="828" fill="#313a39"/><rect width="20" height= "20" x="12639" y="828" fill="#3c4443"/><rect width="160" height= "20" x="12799" y="828" fill="#292b2b"/><rect width="20" height= "20" x="12819" y="828" fill="#1e1c1d"/><rect width="20" height= "20" x="12839" y="828" fill="#6a5857"/><rect width="20" height= "20" x="12859" y="828" fill="#7d7279"/><rect width="20" height= "20" x="12879" y="828" fill="#808475"/><rect width="20" height= "20" x="12899" y="828" fill="#646458"/><rect width="40" height= "20" x="12939" y="828" fill="#00000000"/><rect width="20" height= "20" x="12959" y="828" fill="#756667"/><rect width="20" height= "20" x="12979" y="828" fill="#686868"/><rect width="20" height= "20" x="12999" y="828" fill="#92918d"/><rect width="20" height= "20" x="13019" y="828" fill="#7b514d"/><rect width="20" height= "20" x="13039" y="828" fill="#505157"/><rect width="20" height= "20" x="13059" y="828" fill="#756667"/><rect width="20" height= "20" x="13079" y="828" fill="#936c6a"/><rect width="20" height= "20" x="13099" y="828" fill="#7d7279"/><rect width="20" height= "20" x="13119" y="828" fill="#96989d"/><rect width="20" height= "20" x="13139" y="828" fill="#8b827e"/><rect width="20" height= "20" x="13159" y="828" fill="#aea09f"/><rect width="20" height= "20" x="13179" y="828" fill="#849491"/><rect width="20" height= "20" x="13199" y="828" fill="#7d7279"/><rect width="20" height= "20" x="13219" y="828" fill="#e6eeee"/><rect width="20" height= "20" x="13239" y="828" fill="#373129"/><rect width="100" height= "20" x="13339" y="828" fill="#292b2b"/><rect width="20" height= "20" x="13359" y="828" fill="#f8f6f6"/><rect width="20" height= "20" x="13379" y="828" fill="#808486"/><rect width="20" height= "20" x="13399" y="828" fill="#96989d"/><rect width="20" height= "20" x="13419" y="828" fill="#756667"/><rect width="20" height= "20" x="13439" y="828" fill="#686868"/><rect width="20" height= "20" x="13459" y="828" fill="#756667"/><rect width="60" height= "20" x="13519" y="828" fill="#00000000"/><rect width="20" height= "20" x="13539" y="828" fill="#808486"/><rect width="20" height= "20" x="13559" y="828" fill="#1e1c1d"/><rect width="20" height= "20" x="13579" y="828" fill="#6a5857"/><rect width="80" height= "20" x="13659" y="828" fill="#5a6867"/><rect width="20" height= "20" x="13679" y="828" fill="#9aa3ac"/><rect width="20" height= "20" x="13699" y="828" fill="#b3bbba"/><rect width="20" height= "20" x="13719" y="828" fill="#9aa3ac"/><rect width="20" height= "20" x="13739" y="828" fill="#727878"/><rect width="20" height= "20" x="13759" y="828" fill="#d7dbdc"/><rect width="20" height= "20" x="13779" y="828" fill="#a6b0b2"/><rect width="20" height= "20" x="13799" y="828" fill="#d7dbdc"/><rect width="20" height= "20" x="13819" y="828" fill="#9aa3ac"/><rect width="80" height= "20" x="13899" y="828" fill="#292b2b"/><rect width="20" height= "20" x="13919" y="828" fill="#cfb2b0"/><rect width="20" height= "20" x="13939" y="828" fill="#6a5857"/><rect width="20" height= "20" x="13959" y="828" fill="#667675"/><rect width="20" height= "20" x="13979" y="828" fill="#a6b0b2"/><rect width="20" height= "20" x="13999" y="828" fill="#5a6867"/><rect width="20" height= "20" x="14019" y="828" fill="#808475"/><rect width="60" height= "20" x="14079" y="828" fill="#00000000"/><rect width="20" height= "20" x="14099" y="828" fill="#667675"/><rect width="20" height= "20" x="14119" y="828" fill="#5a6867"/><rect width="40" height= "20" x="14159" y="828" fill="#808486"/><rect width="100" height= "20" x="14259" y="828" fill="#5a6867"/><rect width="20" height= "20" x="14279" y="828" fill="#9aa3ac"/><rect width="20" height= "20" x="14299" y="828" fill="#e6eeee"/><rect width="20" height= "20" x="14319" y="828" fill="#96989d"/><rect width="20" height= "20" x="14339" y="828" fill="#9c858b"/><rect width="40" height= "20" x="14379" y="828" fill="#9aa3ac"/><rect width="80" height= "20" x="14459" y="828" fill="#292b2b"/><rect width="20" height= "20" x="14479" y="828" fill="#baaaa5"/><rect width="20" height= "20" x="14499" y="828" fill="#595d68"/><rect width="20" height= "20" x="14519" y="828" fill="#6a5857"/><rect width="20" height= "20" x="14539" y="828" fill="#727878"/><rect width="20" height= "20" x="14559" y="828" fill="#505157"/><rect width="20" height= "20" x="14579" y="828" fill="#92918d"/><rect width="60" height= "20" x="14639" y="828" fill="#00000000"/><rect width="20" height= "20" x="14659" y="828" fill="#808475"/><rect width="20" height= "20" x="14679" y="828" fill="#af8b6b"/><rect width="20" height= "20" x="14699" y="828" fill="#849491"/><rect width="20" height= "20" x="14719" y="828" fill="#808486"/><rect width="20" height= "20" x="14739" y="828" fill="#748483"/><rect width="120" height= "20" x="14859" y="828" fill="#5a6867"/><rect width="60" height= "20" x="14919" y="828" fill="#997873"/><rect width="20" height= "20" x="14939" y="828" fill="#ac8d87"/><rect width="80" height= "20" x="15019" y="828" fill="#292b2b"/><rect width="20" height= "20" x="15039" y="828" fill="#c5a6a1"/><rect width="20" height= "20" x="15059" y="828" fill="#7b514d"/><rect width="20" height= "20" x="15079" y="828" fill="#6a5857"/><rect width="20" height= "20" x="15099" y="828" fill="#686868"/><rect width="20" height= "20" x="15119" y="828" fill="#849491"/><rect width="20" height= "20" x="15139" y="828" fill="#808486"/><rect width="60" height= "20" x="15199" y="828" fill="#00000000"/><rect width="20" height= "20" x="15219" y="828" fill="#9f7f68"/><rect width="20" height= "20" x="15239" y="828" fill="#af8b6b"/><rect width="20" height= "20" x="15259" y="828" fill="#849491"/><rect width="20" height= "20" x="15279" y="828" fill="#727878"/><rect width="20" height= "20" x="15299" y="828" fill="#667675"/><rect width="20" height= "20" x="15319" y="828" fill="#5a6867"/><rect width="40" height= "20" x="15359" y="828" fill="#96989d"/><rect width="20" height= "20" x="15379" y="828" fill="#505157"/><rect width="20" height= "20" x="15399" y="828" fill="#515d5d"/><rect width="40" height= "20" x="15439" y="828" fill="#5a6867"/><rect width="20" height= "20" x="15459" y="828" fill="#9aa3ac"/><rect width="20" height= "20" x="15479" y="828" fill="#997873"/><rect width="20" height= "20" x="15499" y="828" fill="#ac8d87"/><rect width="40" height= "20" x="15539" y="828" fill="#71644f"/><rect width="20" height= "20" x="15559" y="828" fill="#6a5857"/><rect width="20" height= "20" x="15579" y="828" fill="#5a4f48"/><rect width="20" height= "20" x="15599" y="828" fill="#cfb2b0"/><rect width="20" height= "20" x="15619" y="828" fill="#6a5857"/><rect width="20" height= "20" x="15639" y="828" fill="#96989d"/><rect width="20" height= "20" x="15659" y="828" fill="#849491"/><rect width="20" height= "20" x="15679" y="828" fill="#505157"/><rect width="20" height= "20" x="15699" y="828" fill="#686868"/><rect width="60" height= "20" x="15759" y="828" fill="#00000000"/><rect width="20" height= "20" x="15779" y="828" fill="#a47c56"/><rect width="20" height= "20" x="15799" y="828" fill="#af8b6b"/><rect width="20" height= "20" x="15819" y="828" fill="#808486"/><rect width="20" height= "20" x="15839" y="828" fill="#667675"/><rect width="20" height= "20" x="15859" y="828" fill="#686868"/><rect width="20" height= "20" x="15879" y="828" fill="#5a6867"/><rect width="20" height= "20" x="15899" y="828" fill="#a6b0b2"/><rect width="20" height= "20" x="15919" y="828" fill="#5a6867"/><rect width="20" height= "20" x="15939" y="828" fill="#bec2c2"/><rect width="20" height= "20" x="15959" y="828" fill="#a6b0b2"/><rect width="40" height= "20" x="15999" y="828" fill="#5a6867"/><rect width="20" height= "20" x="16019" y="828" fill="#9aa3ac"/><rect width="20" height= "20" x="16039" y="828" fill="#9e7b7e"/><rect width="20" height= "20" x="16059" y="828" fill="#b3bbc5"/><rect width="40" height= "20" x="16099" y="828" fill="#71644f"/><rect width="20" height= "20" x="16119" y="828" fill="#645a48"/><rect width="20" height= "20" x="16139" y="828" fill="#66523c"/><rect width="20" height= "20" x="16159" y="828" fill="#c5a6a1"/><rect width="20" height= "20" x="16179" y="828" fill="#6d4c49"/><rect width="20" height= "20" x="16199" y="828" fill="#667675"/><rect width="20" height= "20" x="16219" y="828" fill="#808486"/><rect width="20" height= "20" x="16239" y="828" fill="#494949"/><rect width="20" height= "20" x="16259" y="828" fill="#849491"/><rect width="60" height= "20" x="16319" y="828" fill="#00000000"/><rect width="40" height= "20" x="16359" y="828" fill="#a47c56"/><rect width="20" height= "20" x="16379" y="828" fill="#667675"/><rect width="20" height= "20" x="16399" y="828" fill="#5a6867"/><rect width="20" height= "20" x="16419" y="828" fill="#667675"/><rect width="40" height= "20" x="16459" y="828" fill="#a6b0b2"/><rect width="40" height= "20" x="16499" y="828" fill="#9aa3ac"/><rect width="40" height= "20" x="16539" y="828" fill="#a6b0b2"/><rect width="40" height= "20" x="16579" y="828" fill="#5a6867"/><rect width="20" height= "20" x="16599" y="828" fill="#997873"/><rect width="20" height= "20" x="16619" y="828" fill="#ac8d87"/><rect width="40" height= "20" x="16659" y="828" fill="#645a48"/><rect width="20" height= "20" x="16679" y="828" fill="#5a4f48"/><rect width="20" height= "20" x="16699" y="828" fill="#66523c"/><rect width="20" height= "20" x="16719" y="828" fill="#c5a6a1"/><rect width="20" height= "20" x="16739" y="828" fill="#756667"/><rect width="20" height= "20" x="16759" y="828" fill="#849491"/><rect width="20" height= "20" x="16779" y="828" fill="#808486"/><rect width="20" height= "20" x="16799" y="828" fill="#bec2c2"/><rect width="20" height= "20" x="16819" y="828" fill="#494949"/><rect width="60" height= "20" x="16879" y="828" fill="#00000000"/><rect width="40" height= "20" x="16919" y="828" fill="#a47c56"/><rect width="40" height= "20" x="16959" y="828" fill="#5a6867"/><rect width="80" height= "20" x="17039" y="828" fill="#a6b0b2"/><rect width="40" height= "20" x="17079" y="828" fill="#9aa3ac"/><rect width="20" height= "20" x="17099" y="828" fill="#a6b0b2"/><rect width="20" height= "20" x="17119" y="828" fill="#505157"/><rect width="20" height= "20" x="17139" y="828" fill="#5a6867"/><rect width="20" height= "20" x="17159" y="828" fill="#9aa3ac"/><rect width="20" height= "20" x="17179" y="828" fill="#baaaa5"/><rect width="40" height= "20" x="17219" y="828" fill="#645a48"/><rect width="40" height= "20" x="17259" y="828" fill="#66523c"/><rect width="20" height= "20" x="17279" y="828" fill="#c5a6a1"/><rect width="20" height= "20" x="17299" y="828" fill="#6d4c49"/><rect width="20" height= "20" x="17319" y="828" fill="#808486"/><rect width="40" height= "20" x="17359" y="828" fill="#667675"/><rect width="20" height= "20" x="17379" y="828" fill="#5a6867"/><rect width="20" height= "20" x="17399" y="828" fill="#292b2b"/><rect width="40" height= "20" x="17439" y="828" fill="#00000000"/><rect width="40" height= "20" x="17479" y="828" fill="#a47c56"/><rect width="20" height= "20" x="17499" y="828" fill="#5a6867"/><rect width="20" height= "20" x="17519" y="828" fill="#515d5d"/><rect width="120" height= "20" x="17639" y="828" fill="#9aa3ac"/><rect width="40" height= "20" x="17679" y="828" fill="#a6b0b2"/><rect width="20" height= "20" x="17699" y="828" fill="#5a6867"/><rect width="40" height= "20" x="17739" y="828" fill="#ac8d87"/><rect width="40" height= "20" x="17779" y="828" fill="#645a48"/><rect width="40" height= "20" x="17819" y="828" fill="#66523c"/><rect width="20" height= "20" x="17839" y="828" fill="#9c858b"/><rect width="20" height= "20" x="17859" y="828" fill="#5a3e3a"/><rect width="20" height= "20" x="17879" y="828" fill="#808486"/><rect width="20" height= "20" x="17899" y="828" fill="#727878"/><rect width="20" height= "20" x="17919" y="828" fill="#667675"/><rect width="20" height= "20" x="17939" y="828" fill="#cacdce"/><rect width="60" height= "20" x="17999" y="828" fill="#00000000"/><rect width="20" height= "20" x="18019" y="828" fill="#8c5b36"/><rect width="20" height= "20" x="18039" y="828" fill="#976f4a"/><rect width="20" height= "20" x="18059" y="828" fill="#515d5d"/><rect width="20" height= "20" x="18079" y="828" fill="#a6b0b2"/><rect width="140" height= "20" x="18219" y="828" fill="#9aa3ac"/><rect width="20" height= "20" x="18239" y="828" fill="#96989d"/><rect width="20" height= "20" x="18259" y="828" fill="#515d5d"/><rect width="20" height= "20" x="18279" y="828" fill="#5a6867"/><rect width="20" height= "20" x="18299" y="828" fill="#9c858b"/><rect width="40" height= "20" x="18339" y="828" fill="#645a48"/><rect width="20" height= "20" x="18359" y="828" fill="#66523c"/><rect width="20" height= "20" x="18379" y="828" fill="#5a4f48"/><rect width="20" height= "20" x="18399" y="828" fill="#645a48"/><rect width="20" height= "20" x="18419" y="828" fill="#808486"/><rect width="20" height= "20" x="18439" y="828" fill="#748483"/><rect width="20" height= "20" x="18459" y="828" fill="#667675"/><rect width="20" height= "20" x="18479" y="828" fill="#a6b0b2"/><rect width="100" height= "20" x="18579" y="828" fill="#00000000"/><rect width="20" height= "20" x="18599" y="828" fill="#976f4a"/><rect width="20" height= "20" x="18619" y="828" fill="#515d5d"/><rect width="20" height= "20" x="18639" y="828" fill="#9aa3ac"/><rect width="20" height= "20" x="18659" y="828" fill="#a6b0b2"/><rect width="100" height= "20" x="18759" y="828" fill="#9aa3ac"/><rect width="20" height= "20" x="18779" y="828" fill="#a6b0b2"/><rect width="20" height= "20" x="18799" y="828" fill="#e6eeee"/><rect width="20" height= "20" x="18819" y="828" fill="#96989d"/><rect width="20" height= "20" x="18839" y="828" fill="#5a6867"/><rect width="20" height= "20" x="18859" y="828" fill="#8d818b"/><rect width="20" height= "20" x="18879" y="828" fill="#645a48"/><rect width="20" height= "20" x="18899" y="828" fill="#5a4f48"/><rect width="20" height= "20" x="18919" y="828" fill="#66523c"/><rect width="20" height= "20" x="18939" y="828" fill="#5a4f48"/><rect width="20" height= "20" x="18959" y="828" fill="#1e0000"/><rect width="20" height= "20" x="18979" y="828" fill="#96989d"/><rect width="20" height= "20" x="18999" y="828" fill="#667675"/><rect width="20" height= "20" x="19019" y="828" fill="#5a6867"/><rect width="180" height= "20" x="19199" y="828" fill="#00000000"/><rect width="20" height= "20" x="19219" y="828" fill="#96989d"/><rect width="40" height= "20" x="19259" y="828" fill="#9aa3ac"/><rect width="20" height= "20" x="19279" y="828" fill="#a6b0b2"/><rect width="40" height= "20" x="19319" y="828" fill="#9aa3ac"/><rect width="40" height= "20" x="19359" y="828" fill="#808486"/><rect width="20" height= "20" x="19379" y="828" fill="#a6b0b2"/><rect width="20" height= "20" x="19399" y="828" fill="#5a6867"/><rect width="20" height= "20" x="19419" y="828" fill="#bec2c2"/><rect width="20" height= "20" x="19439" y="828" fill="#5a4f48"/><rect width="20" height= "20" x="19459" y="828" fill="#645a48"/><rect width="20" height= "20" x="19479" y="828" fill="#66523c"/><rect width="20" height= "20" x="19499" y="828" fill="#5a4f48"/><rect width="20" height= "20" x="19519" y="828" fill="#100c09"/><rect width="20" height= "20" x="19539" y="828" fill="#667675"/><rect width="20" height= "20" x="19559" y="828" fill="#5a6867"/><rect width="220" height= "20" x="819" y="848" fill="#00000000"/><rect width="20" height= "20" x="839" y="848" fill="#849491"/><rect width="20" height= "20" x="859" y="848" fill="#96989d"/><rect width="40" height= "20" x="899" y="848" fill="#9aa3ac"/><rect width="20" height= "20" x="919" y="848" fill="#a6b0b2"/><rect width="40" height= "20" x="959" y="848" fill="#9aa3ac"/><rect width="20" height= "20" x="979" y="848" fill="#515d5d"/><rect width="20" height= "20" x="999" y="848" fill="#d7dbdc"/><rect width="40" height= "20" x="1039" y="848" fill="#645a48"/><rect width="20" height= "20" x="1059" y="848" fill="#66523c"/><rect width="20" height= "20" x="1079" y="848" fill="#292b2b"/><rect width="20" height= "20" x="1099" y="848" fill="#000000"/><rect width="20" height= "20" x="1119" y="848" fill="#505157"/><rect width="20" height= "20" x="1139" y="848" fill="#5a6867"/><rect width="280" height= "20" x="1419" y="848" fill="#00000000"/><rect width="20" height= "20" x="1439" y="848" fill="#f8f6f6"/><rect width="80" height= "20" x="1519" y="848" fill="#9aa3ac"/><rect width="20" height= "20" x="1539" y="848" fill="#505157"/><rect width="20" height= "20" x="1559" y="848" fill="#849491"/><rect width="20" height= "20" x="1579" y="848" fill="#5a4f48"/><rect width="40" height= "20" x="1619" y="848" fill="#292b2b"/><rect width="20" height= "20" x="1639" y="848" fill="#66523c"/><rect width="20" height= "20" x="1659" y="848" fill="#100c09"/><rect width="20" height= "20" x="1679" y="848" fill="#505157"/><rect width="360" height= "20" x="2039" y="848" fill="#00000000"/><rect width="20" height= "20" x="2059" y="848" fill="#849491"/><rect width="20" height= "20" x="2079" y="848" fill="#9aa3ac"/><rect width="20" height= "20" x="2099" y="848" fill="#808486"/><rect width="20" height= "20" x="2119" y="848" fill="#96989d"/><rect width="40" height= "20" x="2159" y="848" fill="#292b2b"/><rect width="20" height= "20" x="2179" y="848" fill="#494949"/><rect width="20" height= "20" x="2199" y="848" fill="#313a39"/><rect width="20" height= "20" x="2219" y="848" fill="#100c09"/><rect width="420" height= "20" x="1019" y="868" fill="#00000000"/><rect width="20" height= "20" x="1039" y="868" fill="#8b969e"/><rect width="20" height= "20" x="1059" y="868" fill="#524a37"/><rect width="20" height= "20" x="1079" y="868" fill="#7d756b"/></svg>